<?xml version="1.0" encoding="UTF-8" standalone="no"?>
<!-- Created with Inkscape (http://www.inkscape.org/) -->

<svg
   xmlns:dc="http://purl.org/dc/elements/1.1/"
   xmlns:cc="http://creativecommons.org/ns#"
   xmlns:rdf="http://www.w3.org/1999/02/22-rdf-syntax-ns#"
   xmlns:svg="http://www.w3.org/2000/svg"
   xmlns="http://www.w3.org/2000/svg"
   xmlns:sodipodi="http://sodipodi.sourceforge.net/DTD/sodipodi-0.dtd"
   xmlns:inkscape="http://www.inkscape.org/namespaces/inkscape"
   id="svg2"
   version="1.1"
   inkscape:version="0.48.4 r9939"
   width="170"
   height="92.5"
   xml:space="preserve"
   sodipodi:docname="MPG-Logo.pdf"><metadata
     id="metadata8"><rdf:RDF><cc:Work
         rdf:about=""><dc:format>image/svg+xml</dc:format><dc:type
           rdf:resource="http://purl.org/dc/dcmitype/StillImage" /><dc:title></dc:title></cc:Work></rdf:RDF></metadata><defs
     id="defs6"><clipPath
       clipPathUnits="userSpaceOnUse"
       id="clipPath18"><path
         d="M 0,734.531 0,0 l 1351.84,0 0,734.531"
         id="path20" /></clipPath></defs><sodipodi:namedview
     pagecolor="#ffffff"
     bordercolor="#666666"
     borderopacity="1"
     objecttolerance="10"
     gridtolerance="10"
     guidetolerance="10"
     inkscape:pageopacity="0"
     inkscape:pageshadow="2"
     inkscape:window-width="649"
     inkscape:window-height="480"
     id="namedview4"
     showgrid="false"
     inkscape:zoom="2.5513514"
     inkscape:cx="85"
     inkscape:cy="46.25"
     inkscape:window-x="80"
     inkscape:window-y="36"
     inkscape:window-maximized="0"
     inkscape:current-layer="g10" /><g
     id="g10"
     inkscape:groupmode="layer"
     inkscape:label="MPG-Logo"
     transform="matrix(1.25,0,0,-1.25,0,92.5)"><g
       id="g12"
       transform="scale(0.1,0.1)"><g
         id="g14"><g
           id="g16"
           clip-path="url(#clipPath18)"><path
             d="m 380.078,430.199 c 0,163.117 132.703,295.824 295.84,295.824 163.113,0 295.84,-132.707 295.84,-295.824 0,-163.14 -132.727,-295.855 -295.84,-295.855 -163.137,0 -295.84,132.715 -295.84,295.855 z m -8.516,0 c 0,-167.828 136.524,-304.351 304.356,-304.351 167.812,0 304.355,136.523 304.355,304.351 0,167.805 -136.543,304.332 -304.355,304.332 -167.832,0 -304.356,-136.527 -304.356,-304.332"
             style="fill:#00685c;fill-opacity:1;fill-rule:nonzero;stroke:none"
             id="path22" /><path
             d="m 875.879,380.684 c -8.289,-7.7 -20.02,-7.825 -29.531,-14.082 -4.356,-4.356 -3.25,-9.313 -1.477,-14.801 3.52,-6.953 2.191,-6.235 -2.723,-7.871 -11.464,-3.828 -11.347,-16.371 -25.144,-14.274 -0.793,-0.23 -4.008,1.379 -2.102,-0.937 1.485,-1.754 2.102,-0.692 5.02,-1.043 4.922,-0.246 6.758,1.789 10.195,4.129 4.922,4.148 4.336,5.699 10.391,8.609 1.465,0.344 5.027,1.406 7.012,0.703 1.359,-1.234 1.386,-1.273 1.601,-2.383 -0.781,-3.363 -5.683,-6.144 -7.559,-7.316 2.579,-1.898 7.403,-5.078 6.622,-7.758 -1.114,-1.758 -1.055,-2.058 -2.996,-2.996 -2.727,-1.34 -8.196,-1.133 -13.333,2.684 -0.781,-0.243 -1.64,1.523 -3.847,-0.567 5.019,-5.152 12.019,-4.004 13.086,-5.047 1.054,-1.046 -3.75,-7.273 -3.965,-8.625 -3.359,-8.941 0.762,-17.168 -1.035,-26.464 -1.114,-7.262 -3.282,-10.719 -9.649,-15.301 -11.66,-8.078 -19.863,-10.418 -32.949,-12.532 -34.336,-2.332 -56.016,9.434 -80.73,27.911 -24.739,18.476 -34.18,28.293 -41.914,38.695 -0.122,4.246 3.003,7.477 0.339,12.074 -2.246,-0.777 -2.011,-3.687 -3.359,-5.379 -1.902,-2.691 -6.492,-4.687 -9.734,-4.351 -10.176,3.472 -10.743,15.422 -17.102,22.258 -13.652,13.421 -17.461,32.773 -10.176,48.984 2.559,5.035 7.141,9.844 12.305,11.629 6.355,1.012 13.855,1.012 18.008,-5.145 4.89,-4.687 7.929,-12.3 9.148,-19.004 2.024,-3.25 -0.437,-6.941 2.91,-9.625 5.825,-0.55 10.84,-2 16.45,1.567 4.136,-0.555 4.707,-5.153 7.839,-7.153 l 5.586,-3.355 c 5.918,-2.457 13.555,-2.457 18.575,1.906 9.394,9.61 7.343,19.508 10.578,30.114 8.953,7.945 14.91,19.312 14.812,30.39 -0.578,6.824 -3.027,13.867 -7.051,20.692 0.672,4.031 2.911,7.039 4.239,10.621 1.133,0.668 2.578,0.668 3.808,0.89 9.961,2.121 19.024,11.196 22.93,20.703 l 0.898,0.887 c 11.407,0.793 25.606,4.82 32.207,16.789 1.348,5.141 7.161,1.348 10.743,2.563 6.035,0.336 12.09,3.691 16.66,7.605 1.347,0.457 2.344,-1.016 3.144,-1.664 2.676,-8.961 7.598,-17.562 10.391,-26.637 3.469,-6.812 4.719,-13.3 3.469,-20.246 1.453,-10.617 7.508,-20.566 11.746,-31.308 4.258,-11.301 10.84,-22.715 15.664,-34.336 0.898,-4.696 2.91,-8.407 0,-12.203 z m 2.336,19.527 c -8.059,18.578 -17.11,34.562 -23.723,53.246 -4.687,6.703 -2.004,13.855 -2.578,21.023 -2.996,11.188 -7.715,19.801 -12.187,30.653 -1.231,3.125 2.246,4.031 3.488,6.246 2,5.492 0.555,11.652 -1.914,16.906 -0.996,3.008 2.586,5.141 1.914,8.266 -0.129,4.816 -4.367,8.066 -7.727,10.633 -5.039,7.257 -7.383,11.082 -13.652,17.668 l 0,1.25 c 3.125,2.777 5.703,7.593 5.605,11.726 -1.25,4.695 -2.246,9.059 -6.726,12.309 -7.16,4.027 -14.426,-2.239 -20.117,-5.485 -1.582,-1.105 -2.368,-2.234 -4.602,-2.023 -1.445,0.519 -2.949,1.059 -4.473,1.605 -1.445,-1.668 -3.269,-3.433 -5.488,-5.187 l 6.945,-2.82 c 0.25,-0.188 0.34,-0.325 0.34,-0.575 0,-0.117 -0.05,-0.336 -0.066,-0.523 -0.488,-0.418 -16.086,-14.094 -16.086,-14.094 -0.051,-0.035 -28.125,-27.777 -28.125,-27.777 0,-0.02 -8.047,-8.18 -8.047,-8.18 -0.058,-0.043 -25,-28.789 -25,-28.789 -13.047,-15.137 -32.336,-39.977 -43.926,-58.148 -6.047,-8.317 -12.058,-17.571 -17.668,-26.301 -0.601,-0.965 -1.746,-0.895 -3.562,-0.672 -1.231,0.141 -2.5,0.266 -3.645,-0.117 0.024,0 0.051,0 0.051,0 l -0.254,-0.071 c 0.059,0.016 0.149,0.036 0.203,0.071 -6.343,-0.703 -10.957,-2.824 -15.894,-7.289 -6.406,-7.555 -9.621,-16.696 -9.621,-26.559 0,-6.793 1.535,-13.933 4.648,-21.109 -1.308,-3.844 -4.324,-7.227 -7.031,-10.235 l -1.504,-1.687 -1.926,-1.899 c -1.238,-1.179 -2.676,-2.523 -3.699,-3.847 l -0.098,-0.117 -0.058,-0.161 c -0.137,-0.41 -0.188,-1.21 1.047,-1.8 l 0.293,-0.16 0.339,0.074 c 5.911,1.41 9.621,5.843 13.235,10.144 0,0 2.262,2.617 2.594,3.004 0.531,0.086 0.976,-0.211 1.75,-0.863 0.41,-0.34 0.871,-0.672 1.406,-0.918 0,-0.129 0,-0.293 0,-0.293 0,0 -0.078,-1.914 -0.098,-2.352 -13.984,-13.824 -25.383,-21.617 -40.281,-30.367 l -2.485,-1.465 2.883,-0.293 c 5.813,-0.574 11.328,2.696 16.66,5.84 l 6.407,3.535 c 5.926,3.047 11.418,7.657 16.75,12.129 0,0 4.8,4.004 5.32,4.438 0.508,-0.086 1.063,-0.727 1.492,-1.242 0,0 0.324,-0.34 0.531,-0.563 0.086,-0.176 4.461,-8.832 4.735,-9.351 -1.004,-4.098 -1.438,-8.219 -1.438,-12.333 0,-8.957 1.938,-17.863 3.84,-26.582 1.875,-8.601 3.82,-17.492 3.82,-26.203 0,-0.586 -0.011,-1.148 -0.031,-1.718 0,-2.696 -2.961,-6.266 -5.422,-7.403 -5.586,-0.937 -12.339,-1.015 -19.5,-1.07 -8.769,-0.078 -17.851,-0.16 -24.824,-2.055 -2.246,-0.254 -4.844,-0.996 -7.351,-1.695 -2.485,-0.688 -5.032,-1.41 -7.407,-1.731 l -0.222,-0.039 -0.274,-0.207 -0.859,-0.593 c -0.801,-0.5 -1.777,-1.114 -2.024,-2.278 -0.007,-0.097 -0.027,-0.203 -0.027,-0.312 0,-0.664 0.313,-1.406 0.82,-1.922 0.469,-0.496 1.082,-0.734 1.719,-0.676 2.11,0 4.461,0.86 6.758,1.692 1.602,0.574 3.27,1.199 4.805,1.453 14.57,2.492 30.547,1.984 41.367,1.117 5.344,0.078 14.109,0.254 17.265,7.848 1.141,3.078 1.536,5.941 1.536,8.683 0,3.035 -0.469,5.957 -0.95,8.953 l -0.964,7.387 c -0.637,4.488 -1.582,8.98 -2.512,13.34 -1.641,7.711 -3.328,15.64 -3.328,23.687 0,1.633 0.093,3.266 0.23,4.903 0.156,0.207 0.332,0.453 0.539,0.492 0.469,0.055 1.297,-0.598 1.953,-1.117 0.75,-0.586 1.512,-1.153 2.364,-1.375 0.965,-0.735 2.058,-0.926 3.054,-1.067 1.391,-0.176 2.153,-0.351 2.578,-1.433 0.625,-7.063 3.071,-14.368 5.43,-21.426 1.633,-4.863 3.32,-9.895 4.387,-14.805 1.933,-8.594 3.867,-17.316 3.867,-25.93 0,-5.105 -0.691,-10.183 -2.488,-15.164 -3.735,-6.804 -11.914,-6.828 -19.797,-6.867 l -2.363,0 -19.356,1.172 c -16.601,1.215 -33.769,2.441 -51.355,-0.398 0.117,0.007 -3.957,-0.422 -3.957,-0.422 -2.168,-0.332 -4.219,-0.594 -6.414,-0.086 -0.825,0.664 -1.477,1.797 -1.477,3 0,0.371 0.066,0.758 0.227,1.129 3.132,6.933 4.714,13.207 4.714,18.75 0,4.511 -1.027,8.527 -3.093,12.062 -4.551,8.723 -9.551,14.774 -15.727,18.992 -7.558,7.563 -14.012,14.258 -19.754,20.793 -3.359,0.418 -5.422,1.094 -5.644,1.161 l -0.75,0.253 -3.364,-4.136 c 4.36,-4.145 8.391,-8.285 13.325,-12.754 7.488,-4.027 13.523,-11.313 18.894,-16.235 6.485,-7.593 8.047,-15.64 6.699,-24.597 -0.886,-10.617 -10.605,-15.207 -17.214,-22.254 -2.676,-5.039 -4.368,-11.078 -0.684,-15.774 2.371,-6.261 12.422,-5.128 13.648,-10.304 2.778,-11.348 22.493,-17.91 26.329,-18.184 3.832,-0.254 7.792,-4.5 7.792,-4.5 7.832,-5.715 18.125,-4.324 23.54,-3.508 5.386,0.821 15.046,-3.543 21.101,-2.656 9.043,3.574 16.438,1.914 25.828,2.695 29.531,-0.457 63.078,0.215 93.281,-3.582 5.598,0.672 12.305,-3.691 17.571,-1.023 1.347,2.262 0.332,4.148 0,6.051 -14.434,22.699 -16.582,48.183 -8.399,72.922 l 5.43,-0.325 c 19.602,-2.129 37.422,0.411 57.324,11.914 9.942,5.5 15.176,18.321 14.707,27.61 -0.312,6.023 -2.402,13.152 -1.386,19.531 0.339,2.852 2.238,7.18 4.687,8.524 1.035,0.609 4.707,3.085 5.859,6.273 1.883,5.164 -2.168,7.613 -3.339,8.316 3.164,1.289 6.218,7.746 3.32,12.782 -1.875,1.996 -4.043,9.847 -4.277,12.421 -0.684,3.7 -0.789,7.493 2.683,9.86 7.832,4.121 15.207,5.133 23.371,8.719 5.606,2.343 8.496,8.16 8.281,13.41 l -3.347,11.41 z M 558.438,215.793 c -0.997,-1.801 -0.86,-3 -1.309,-5.156 -0.547,-0.989 -3.352,0.34 -4.238,0.886 -3.465,1.875 -3.235,0.926 -4.239,4.153 -0.566,2.144 -0.5,4.676 3.078,6.543 2.235,1.277 6.708,2.793 8.165,0 0.457,-1.867 -1.79,-4.289 -1.457,-6.426 z m 19.089,-24.16 c -4.578,-0.121 -7.8,2.379 -9.922,7.793 -2.144,6.875 -2.871,12.945 -1.382,20.039 0.476,0.887 1.492,1.461 2.144,1.172 l 6.391,2.175 c 2.144,0.868 3.902,1.172 5.945,0.684 l 1.301,-1.289 c -0.102,-3.73 -1.02,-6.477 -1.113,-9.934 -0.371,-8.652 -1.106,-11.25 1.382,-19.492 -0.918,-2.176 -2.761,-1.121 -4.746,-1.148 z m 262.856,321.722 c -0.637,-0.664 -1.418,-1.464 -2.461,-1.191 -2.387,1.664 -1.469,3.777 -1.34,5.77 0.496,0.484 0.574,0.761 1.34,0.761 1.121,0.2 1.746,-0.633 2.176,-1.23 0.703,-1.305 0.793,-2.774 0.285,-4.11 z M 658.879,408.609 c 15.664,28.071 34.683,52.461 55.039,77.508 l 28.523,32.43 c 20.352,21.711 42.832,43.969 67.774,61.18 3.137,1.793 4.519,5.472 7.734,2.89 l 2.949,-2.699 c 1.973,-2.242 0.262,-8.586 -1.757,-10.367 -1.621,-1.313 -3.184,-2.61 -4.727,-3.899 4.863,-4.812 11.875,-13.964 17.656,-19.898 2.52,-2.606 1.739,-5.309 6.27,-7.418 2.265,-1.07 2.91,-3.539 1.562,-5.66 -4.011,-5.153 -10.714,-4.36 -15.984,-5.703 -19.582,-4.368 -35.383,-9.965 -57.043,-20.465 -17.332,-9.18 -31.191,-19.352 -43.738,-35.125 -4.797,-5.93 -10.168,-10.41 -14.192,-17.551 -11.406,-14.66 -20.468,-28.422 -29.55,-43.523 -3.235,-4.747 -4.29,-7.118 -8.829,-11.407 -2.207,-2.101 -4.171,2.274 -5.546,3.793 -0.157,0.172 -0.254,0.367 -0.364,0.532 -0.468,-0.067 -0.957,0.027 -1.426,0.347 -1.218,1.567 -5.027,2.235 -4.351,5.035 z m 172.516,108.45 c -0.29,-5.426 -7.528,-9.911 -13.563,-11.586 -2.598,-0.399 -4.961,-0.25 -7.246,-0.25 -0.598,0.418 -1.289,0.925 -1.191,1.5 0.39,2.589 0.8,4.086 0.996,6.418 l 1.484,1.093 c 5.352,1.078 11.895,2.227 17.258,3.657 0.789,-0.176 1.765,-0.098 2.262,-0.832 z m -56.2,-14.121 0.957,1.238 c 4.395,2.086 8.457,3.695 13.321,5.101 l 5.832,1.516 c 1.55,1.398 4.265,2.543 5.84,0.555 0.085,-7.539 -5.547,-16.618 -13.899,-20.094 -2.637,-1.141 -6.133,-1.52 -9.238,-2.281 -0.781,0.66 -3.32,-0.75 -4.082,1.14 0.488,3.778 1.933,9.442 1.269,12.825 z m -59.726,-133.84 c -1.551,-0.899 -15.078,4.261 -13.496,2.832 -3.203,3.461 2.031,4.629 -9.903,9.105 l -2.882,-0.297 c -0.379,-0.347 -1.434,-0.879 -2.5,0.61 -0.106,1.789 2.25,1.535 3,3.765 4.265,9.614 1.914,17.055 1.496,27.012 l 3.164,8.152 c 5.984,7.223 5.964,8.254 10.027,12.172 4.063,5.719 4.922,6.153 10.352,10.848 0.898,0.769 2.539,1.367 3.593,0.473 2.571,-2.008 2.703,-3.321 3.457,-5.883 1.282,-9.52 -4.472,-16.043 -11.406,-21.188 -4.922,-4.25 -9.609,-10.84 -8.547,-17.336 l 0.422,-0.433 c 2.246,1.894 5.066,3.004 6.024,5.343 3.75,8.383 13.847,12.192 19.503,19.473 2.461,4.356 0.965,11.914 0,16.945 -0.019,-0.14 7.422,3.528 5.403,2.207 3.535,-1.449 3.094,-3.988 4.804,-7.214 3.309,-8.395 3.028,-15.977 -2.101,-23.246 l -14.102,-17.586 c -0.215,-8.965 2.246,-20.493 -6.308,-25.754 z m 18.613,85.105 c -3.398,-1.566 -6.875,-1.906 -10.625,-0.172 -0.957,1.297 -4.055,2.348 -2.832,4.25 2.715,4.41 7.324,8.047 10.156,12.379 l 1.309,0.707 c 5.742,6.926 14.785,12.727 23.34,17.934 l 5.175,2.25 c 1.133,1.121 3.77,3.469 4.793,1.043 0.2,-9.016 -3.621,-18.66 -12.214,-25.039 -5.215,-3.864 -7.461,-3.117 -12.11,-3.395 l -2.39,-4.324 c -0.571,-2.164 -2.454,-4.332 -4.602,-5.633 z m -47.461,-51.469 -0.234,-6.382 c -0.575,-5.825 -3.274,-12.524 -8.742,-15.77 -3.258,0.773 -2.098,4.699 -2.911,7.379 2.114,5.816 6.184,10.633 9.551,15.769 0.461,0.34 0.93,0.567 1.399,0.34 l 0.937,-1.336 z M 608.75,180.969 c -2.285,-2.356 -3.574,-1.25 -5.879,-1.477 -6.594,1.785 -10.469,4.641 -12.336,12.102 -2.422,10.386 -2.332,21.812 0,32.437 l 1.059,0.821 c 4.629,0.531 11.629,1.464 13.535,0.421 1.902,-1.046 -2.043,-19.738 -2.043,-19.738 -0.125,-3.711 1.687,-13.199 3.379,-18.113 0.351,-0.734 4.14,-4.539 2.285,-6.453 z m 47.754,11.543 c -0.703,-6.684 -9.082,-12.563 -13.184,-13.735 -4.109,-1.179 -16.379,-0.601 -19.914,0.625 -3.523,1.211 -12.136,18.047 -11.133,26.778 0,7.207 1.938,18.656 4.836,19.574 2.891,0.894 10.547,0.426 10.547,0.426 3.203,0.215 5.625,-0.543 8.449,-0.879 1.993,-0.758 0.583,-3.281 1.29,-4.696 0.906,-3.718 1.121,-7.761 3.425,-11.472 3.223,-6.235 9.141,-9.961 14.981,-12.153 1.308,-1.199 0.586,-2.832 0.703,-4.468 z m -9.414,28.242 c 0,1.324 0.078,1.883 1.094,2.32 l 5.527,0 c 4.91,-0.176 11.23,-1.797 15.832,2.973 2.637,-0.102 2.867,-3.235 3.57,-5.664 0.625,-3.403 0.473,-5.547 0.473,-8.598 -1.098,-2.41 -2.336,-6.082 -4.824,-7.613 -3.977,-1.875 -7.969,-1.516 -11.782,0 -5.769,3.418 -9.968,8.863 -9.89,16.582 z m 113.262,26.394 c -7.403,-25.617 -10.918,-38.839 0.605,-65.222 0.117,-1.02 1.231,-4.281 0,-4.719 -12.734,2.566 -16.133,3.66 -28.113,4.551 -11.067,1.902 -29.446,-1.172 -41.75,-1.055 -9.602,-0.332 -19.356,-0.652 -29.422,-1.894 -3.012,1.562 -0.676,4.921 -0.442,7.16 1.114,3.465 1.219,5.25 1.563,9.273 1.57,1.672 3.477,0.781 5.371,1.574 6.484,0.996 11.973,6.707 13.535,12.754 2.012,6.356 -0.207,13.407 -3.113,19.453 -0.59,1.786 -3.039,3.133 -2.024,4.911 7.942,14.894 2.344,29.984 -0.339,44.523 -2.793,10.305 -7.043,21.699 -8.735,32.559 0.344,1.113 -1.109,3.703 1.34,3.914 l 0.906,-0.211 c 8.496,-10.317 32.825,-32.09 41.946,-39.172 9.121,-7.078 32.656,-20.801 47.976,-24.5 1.457,-1.211 1.242,-2.219 0.696,-3.899"
             style="fill:#00685c;fill-opacity:1;fill-rule:nonzero;stroke:none"
             id="path24" /><path
             d="m 824.98,469.844 c 1.551,-2.024 2.579,-3.805 1.336,-5.711 -2.898,-0.227 -3.347,3.461 -5.808,4.699 -4.031,2.004 -7.617,-0.133 -11.641,-1.129 -10.156,-4.359 -18.672,-13.078 -28.515,-17.66 -1.231,0 -2.344,0.113 -3.125,1.008 1.679,1.672 4.355,2.011 6.496,3.359 10.164,6.703 20.015,17.199 32.754,19.113 3.367,0.215 6.375,-1 8.503,-3.679"
             style="fill:#00685c;fill-opacity:1;fill-rule:nonzero;stroke:none"
             id="path26" /><path
             d="m 824.199,452.602 c -0.781,2.476 -0.683,6.5 -3.691,7.054 -0.664,-1.554 0,-3.25 -0.664,-4.699 -0.899,-1.109 -2.461,-2.453 -4.258,-2.008 -12.305,-0.777 -21.484,-11.64 -31.992,-17.219 -3.574,-2.019 -7.598,-3.148 -11.406,-4.148 -0.333,-0.562 -0.215,-1.344 0.332,-1.672 11.64,-1.23 23.156,-2.367 34.687,-3.582 l 12.852,1.465 c 0.339,1.664 -1.68,3.121 -1.348,5.035 1.465,5.242 1.914,10.949 0.461,15.871 1.004,2.672 4.812,0.672 5.027,3.903 z m -8.996,-19.86 c -1.57,-2.332 -4.07,-0.301 -6.277,-0.578 -5.039,0.578 -13.535,-0.598 -19.082,0.094 -0.84,0.484 -1.465,1.359 -0.957,2.14 0.84,1.383 3.164,1.469 4.629,2.543 6.086,3.801 12.48,7.414 19.394,9.071 1.25,0.187 2.293,-0.879 2.52,-1.75 0.832,-3.215 0.312,-8.395 -0.227,-11.52"
             style="fill:#00685c;fill-opacity:1;fill-rule:nonzero;stroke:none"
             id="path28" /><path
             d="m 830.715,394.945 c 0.398,0.582 0.867,1.25 1.414,1.305 0.73,-0.266 1.113,-0.613 1.223,-1.965 -0.09,-2.156 -0.637,-4.426 -1.223,-6.828 -0.664,-2.727 -1.348,-5.531 -1.348,-8.277 0,-1.211 0.137,-2.418 0.449,-3.606 1.629,-2.015 4.122,-2.469 7.11,-1.437 0.066,0.023 5.117,2.914 5.117,2.914 4.375,2.621 8.516,5.094 16.191,7.047 0.176,0.05 0.223,-0.012 0.254,-0.047 0.118,-0.133 0.164,-0.43 0.164,-0.789 0,-0.645 -0.183,-1.547 -0.504,-2.282 -0.285,-0.132 -7.374,-3.289 -7.374,-3.289 -5.586,-2.453 -11.36,-4.961 -16.778,-8.074 -1.601,-0.32 -3.074,0.535 -4.504,1.383 l -0.359,0.199 c -2.051,2.821 -2.715,5.547 -2.715,8.278 0,2.437 0.535,4.894 1.074,7.41 0.508,2.332 1.043,4.754 1.172,7.297 0.164,0.211 0.637,0.761 0.637,0.761"
             style="fill:#00685c;fill-opacity:1;fill-rule:nonzero;stroke:none"
             id="path30" /><path
             d="m 656.418,397.242 c 4.043,-8.273 -0.219,-16.101 0,-24.722 0.672,-2.446 5.484,-2.786 4.043,-5.7 -1.137,-0.781 -2.695,-0.996 -3.93,-0.101 -2.234,1.445 -3.015,2.554 -3.582,5.136 -0.566,7.594 5.489,16.45 0.11,23.598 -1.555,1.574 -3.801,3.141 -6.039,3.238 -4.813,-0.89 -7.262,-6.035 -8.934,-9.82 -2.578,-10.078 -3.25,-20.707 5.586,-28.754 5.156,-3.019 11.406,-6.269 11.758,-12.758 0.769,-1.125 2.336,-2.226 3.574,-1.558 1.562,0.105 1.777,4.582 4.016,2.453 l 0.671,-1.566 c -0.566,-1.782 -1.113,-4.926 -4.011,-5.028 -1.465,-0.332 -3.039,0.445 -4.25,1.336 -3.157,3.238 -0.684,8.164 -5.95,10.297 -8.718,2.684 -14.429,11.859 -15.32,20.469 -0.566,8.269 -0.215,17.336 6.945,24.605 2.79,2.125 6.485,3.473 10.067,2.348 2.012,-0.332 4.363,-1.785 5.246,-3.473"
             style="fill:#00685c;fill-opacity:1;fill-rule:nonzero;stroke:none"
             id="path32" /><path
             d="m 547.07,336.754 c -15.925,-7.391 -20.781,-26.363 -20.996,-27.164 l -0.422,-1.68 1.653,-0.558 c 0.617,-0.215 15.398,-5.047 33.449,3.808 18.191,8.93 21.934,26.942 22.09,27.707 l 0.371,1.903 -1.926,0.304 c -0.754,0.133 -18.586,2.93 -34.219,-4.32 z m 1.582,-3.426 c 11.629,5.391 24.922,4.774 29.922,4.277 -1.426,-4.601 -6.262,-16.582 -19.48,-23.062 -13.266,-6.508 -24.629,-4.953 -28.789,-4.066 1.531,4.613 6.668,17.421 18.347,22.851"
             style="fill:#00685c;fill-opacity:1;fill-rule:evenodd;stroke:none"
             id="path34" /><path
             d="m 562.949,372.5 c -15.957,-7.191 -21.855,-25.992 -22.09,-26.785 l -0.539,-1.793 1.77,-0.559 c 0.625,-0.195 15.371,-4.59 33.476,4.075 18.262,8.734 22.149,26.132 22.305,26.867 l 0.391,1.906 -1.914,0.34 c -0.711,0.133 -17.703,3.039 -33.399,-4.051 z m 1.543,-3.43 c 11.582,5.235 24.238,4.563 29.082,4.043 -1.496,-4.5 -6.433,-15.965 -19.636,-22.289 -13.157,-6.281 -24.446,-5.094 -28.762,-4.281 1.828,4.687 7.656,17.258 19.316,22.527"
             style="fill:#00685c;fill-opacity:1;fill-rule:evenodd;stroke:none"
             id="path36" /><path
             d="m 583.672,406.938 c -15.977,-7.016 -22.902,-25.629 -23.184,-26.426 l -0.703,-1.899 1.961,-0.551 c 0.625,-0.175 15.332,-4.117 33.457,4.34 18.359,8.532 22.375,25.317 22.551,26.032 l 0.41,1.898 -1.894,0.375 c -0.672,0.133 -16.829,3.176 -32.598,-3.769 z m 1.516,-3.458 c 11.542,5.079 23.55,4.368 28.25,3.817 -1.563,-4.391 -6.622,-15.348 -19.805,-21.492 -13.028,-6.055 -24.219,-5.223 -28.723,-4.52 2.16,4.77 8.637,17.082 20.278,22.195"
             style="fill:#00685c;fill-opacity:1;fill-rule:evenodd;stroke:none"
             id="path38" /><path
             d="M 604.258,440.941 C 588.262,434.102 580.32,415.676 580,414.906 l -0.859,-2.031 2.136,-0.535 c 0.618,-0.156 15.278,-3.668 33.469,4.578 18.418,8.352 22.566,24.531 22.754,25.215 l 0.461,1.89 -1.906,0.415 c -0.633,0.132 -15.926,3.277 -31.797,-3.497 z m 1.484,-3.464 c 11.504,4.906 22.871,4.16 27.403,3.593 -1.629,-4.277 -6.79,-14.758 -19.961,-20.718 -12.879,-5.84 -23.996,-5.336 -28.653,-4.743 2.489,4.86 9.61,16.911 21.211,21.868"
             style="fill:#00685c;fill-opacity:1;fill-rule:evenodd;stroke:none"
             id="path40" /><path
             d="m 632.754,474.977 c -16.035,-6.661 -24.981,-24.915 -25.352,-25.68 l -1.054,-2.149 2.336,-0.511 c 0.613,-0.137 15.242,-3.199 33.484,4.832 18.484,8.156 22.781,23.734 22.961,24.39 l 0.496,1.875 -1.895,0.454 c -0.585,0.136 -15.046,3.406 -30.976,-3.211 z m 1.434,-3.485 c 11.449,4.754 22.199,3.973 26.574,3.36 -1.7,-4.164 -6.961,-14.129 -20.117,-19.93 -12.833,-5.66 -23.821,-5.426 -28.583,-4.953 2.86,4.937 10.583,16.715 22.126,21.523"
             style="fill:#00685c;fill-opacity:1;fill-rule:evenodd;stroke:none"
             id="path42" /><path
             d="m 664.16,507.801 c -16.055,-6.473 -26.035,-24.555 -26.445,-25.321 l -1.223,-2.261 2.531,-0.492 c 0.606,-0.114 15.196,-2.75 33.465,5.109 18.586,7.965 23.032,22.918 23.203,23.547 l 0.532,1.859 -1.875,0.481 c -0.571,0.152 -14.18,3.539 -30.188,-2.922 z m 1.406,-3.485 c 11.36,4.579 21.504,3.778 25.723,3.145 -1.769,-4.047 -7.148,-13.551 -20.281,-19.16 -12.715,-5.457 -23.586,-5.504 -28.481,-5.156 3.203,5.015 11.535,16.523 23.039,21.171"
             style="fill:#00685c;fill-opacity:1;fill-rule:evenodd;stroke:none"
             id="path44" /><path
             d="m 697.695,538.848 c -16.093,-6.297 -27.07,-24.215 -27.519,-24.969 l -1.446,-2.406 2.762,-0.434 c 0.61,-0.082 15.149,-2.301 33.469,5.348 18.652,7.769 23.223,22.097 23.406,22.711 l 0.578,1.855 -1.855,0.512 c -0.528,0.144 -13.301,3.68 -29.395,-2.617 z m 1.375,-3.512 c 11.262,4.398 20.832,3.594 24.895,2.941 -1.875,-3.933 -7.344,-12.961 -20.449,-18.418 -12.539,-5.226 -23.328,-5.566 -28.379,-5.347 3.593,5.097 12.519,16.351 23.933,20.824"
             style="fill:#00685c;fill-opacity:1;fill-rule:evenodd;stroke:none"
             id="path46" /><path
             d="m 732.578,567.484 c -16.133,-6.121 -28.105,-23.871 -28.601,-24.613 l -1.692,-2.539 3.02,-0.383 c 0.613,-0.082 15.105,-1.836 33.465,5.606 18.73,7.582 23.449,21.289 23.632,21.883 l 0.606,1.8 -1.817,0.582 c -0.5,0.149 -12.429,3.809 -28.613,-2.336 z m 1.348,-3.511 c 11.152,4.234 20.144,3.406 24.023,2.715 -1.933,-3.797 -7.558,-12.368 -20.586,-17.641 -12.422,-5.024 -23.086,-5.621 -28.242,-5.527 3.965,5.136 13.418,16.128 24.805,20.453"
             style="fill:#00685c;fill-opacity:1;fill-rule:evenodd;stroke:none"
             id="path48" /><path
             d="m 768.02,593.148 c -16.165,-5.953 -29.133,-23.539 -29.68,-24.293 l -1.953,-2.648 3.281,-0.328 c 0.605,-0.074 15.059,-1.383 33.477,5.859 18.789,7.379 23.652,20.481 23.847,21.035 l 0.637,1.786 -1.789,0.621 c -0.449,0.175 -11.555,3.965 -27.82,-2.032 z m 1.296,-3.531 c 11.055,4.071 19.493,3.235 23.184,2.52 -2.012,-3.66 -7.727,-11.785 -20.742,-16.899 -12.266,-4.816 -22.774,-5.644 -28.067,-5.687 4.336,5.191 14.329,15.902 25.625,20.066"
             style="fill:#00685c;fill-opacity:1;fill-rule:evenodd;stroke:none"
             id="path50" /><path
             d="m 521.602,372.77 c -0.481,-0.622 -11.543,-14.989 -12.684,-32.274 -1.137,-17.598 13.262,-31.055 13.887,-31.601 l 1.257,-1.18 1.29,1.18 c 0.476,0.429 11.882,11.125 12.753,31.324 0.887,20.336 -13.222,32.324 -13.82,32.828 l -1.504,1.25 -1.179,-1.527 z m -8.965,-34.239 c 0,0.574 0.019,1.141 0.058,1.711 0.84,12.946 7.832,24.356 10.657,28.485 3.269,-3.379 11.035,-12.813 11.035,-26.723 0,-0.539 -0.024,-1.086 -0.039,-1.633 -0.657,-14.836 -7.5,-24.133 -10.317,-27.355 -3.179,3.402 -11.394,13.351 -11.394,25.515"
             style="fill:#00685c;fill-opacity:1;fill-rule:evenodd;stroke:none"
             id="path52" /><path
             d="m 544.055,411.5 c -0.371,-0.422 -9.367,-10.352 -13.215,-24.621 -0.508,-1.938 -0.93,-4.008 -1.172,-6.156 -2.078,-17.067 10.242,-31.059 10.781,-31.661 l 1.223,-1.351 1.402,1.18 c 0.488,0.425 12.121,10.519 14.492,30.129 2.375,19.82 -10.293,32.058 -10.82,32.566 l -1.394,1.32 -1.297,-1.406 z m -10.864,-34.625 c 0,1.109 0.071,2.242 0.207,3.387 0.235,1.968 0.594,3.863 1.082,5.625 2.754,10.23 8.458,18.215 11.016,21.453 2.707,-3.215 8.598,-11.578 8.598,-23.512 0,-1.406 -0.09,-2.855 -0.266,-4.371 -1.719,-14.277 -8.828,-23.141 -11.816,-26.316 -2.657,3.519 -8.821,12.793 -8.821,23.734"
             style="fill:#00685c;fill-opacity:1;fill-rule:evenodd;stroke:none"
             id="path54" /><path
             d="m 569.238,447.832 c -0.398,-0.383 -9.843,-9.184 -14.648,-23.359 -0.606,-1.797 -1.106,-3.75 -1.492,-5.957 -3.008,-16.5 7.273,-31.032 7.703,-31.661 l 1.14,-1.593 1.555,1.222 c 0.496,0.395 12.395,9.899 16.223,28.926 3.875,19.266 -7.336,31.778 -7.817,32.285 l -1.265,1.407 -1.399,-1.27 z M 556.34,412.438 c 0,1.757 0.137,3.601 0.476,5.421 0.352,2.012 0.801,3.782 1.348,5.411 3.406,10.066 9.465,17.351 12.195,20.3 2.153,-3.043 6.387,-10.3 6.387,-20.269 0,-2.254 -0.223,-4.641 -0.738,-7.164 -2.746,-13.696 -10.11,-22.129 -13.293,-25.254 -2.102,3.543 -6.375,11.926 -6.375,21.555"
             style="fill:#00685c;fill-opacity:1;fill-rule:evenodd;stroke:none"
             id="path56" /><path
             d="m 596.926,481.777 c -0.422,-0.328 -10.293,-8.007 -16.086,-22.07 -0.695,-1.66 -1.27,-3.531 -1.809,-5.742 -3.886,-15.957 4.262,-30.992 4.614,-31.637 l 1.023,-1.859 1.727,1.254 c 0.507,0.363 12.648,9.269 17.941,27.703 5.383,18.711 -4.363,31.488 -4.785,32.004 l -1.133,1.468 -1.492,-1.121 z M 581.777,445.09 c 0,2.594 0.274,5.305 0.926,7.984 0.481,2.02 1.02,3.727 1.621,5.207 4.074,9.879 10.434,16.477 13.344,19.149 1.602,-2.754 4.48,-8.782 4.48,-16.938 0,-3.07 -0.402,-6.449 -1.433,-10.023 -3.774,-13.121 -11.352,-21.117 -14.758,-24.219 -1.504,3.402 -4.18,10.602 -4.18,18.84"
             style="fill:#00685c;fill-opacity:1;fill-rule:evenodd;stroke:none"
             id="path58" /><path
             d="m 626.902,513.379 c -0.425,-0.258 -10.703,-6.813 -17.515,-20.762 -0.766,-1.586 -1.457,-3.336 -2.129,-5.527 -4.785,-15.41 1.265,-30.949 1.543,-31.606 l 0.855,-2.144 1.926,1.265 c 0.527,0.36 12.891,8.68 19.641,26.497 6.875,18.156 -1.379,31.171 -1.731,31.718 l -1.015,1.555 -1.575,-0.996 z M 609.211,474.48 c 0,3.672 0.445,7.61 1.641,11.489 0.625,2 1.238,3.597 1.914,4.984 4.761,9.735 11.433,15.68 14.48,18.055 1.16,-2.399 2.93,-7.094 2.93,-13.453 0,-3.856 -0.645,-8.266 -2.481,-13.106 -4.726,-12.484 -12.539,-20.101 -16.191,-23.152 -0.906,3.051 -2.293,8.668 -2.293,15.183"
             style="fill:#00685c;fill-opacity:1;fill-rule:evenodd;stroke:none"
             id="path60" /><path
             d="m 659.004,542.695 c -0.449,-0.218 -11.106,-5.644 -18.984,-19.492 -0.84,-1.492 -1.622,-3.176 -2.43,-5.277 -5.695,-14.86 -1.692,-30.883 -1.516,-31.559 l 0.614,-2.449 2.179,1.316 c 0.528,0.313 13.125,8.059 21.328,25.278 8.367,17.57 1.602,30.828 1.309,31.375 l -0.859,1.633 -1.641,-0.825 z M 638.34,500.16 c 0,4.985 0.637,10.848 2.765,16.418 0.75,1.918 1.434,3.434 2.196,4.766 5.449,9.562 12.402,14.844 15.617,16.933 0.711,-1.972 1.68,-5.382 1.68,-10.078 0,-4.472 -0.891,-9.969 -3.801,-16.066 -5.692,-11.953 -13.762,-19.102 -17.617,-22.071 -0.391,2.309 -0.84,5.883 -0.84,10.098"
             style="fill:#00685c;fill-opacity:1;fill-rule:evenodd;stroke:none"
             id="path62" /><path
             d="m 693.066,569.742 c -0.468,-0.191 -11.445,-4.508 -20.437,-18.18 -0.93,-1.441 -1.828,-3.105 -2.758,-5.07 -6.57,-14.285 -4.637,-30.801 -4.551,-31.476 l 0.344,-2.754 2.434,1.328 c 0.547,0.297 13.367,7.445 23.023,24.07 9.836,16.973 4.582,30.445 4.367,31.016 l -0.715,1.719 -1.707,-0.653 z m -24.289,-48.25 c 0,5.895 0.727,15.184 4.524,23.426 0.847,1.809 1.648,3.289 2.492,4.555 6.16,9.406 13.395,14.058 16.734,15.839 0.364,-1.5 0.735,-3.73 0.735,-6.687 0,-4.953 -1.114,-11.66 -5.403,-19.074 -6.621,-11.406 -14.898,-18.117 -19.004,-20.992 -0.039,0.851 -0.078,1.816 -0.078,2.933"
             style="fill:#00685c;fill-opacity:1;fill-rule:evenodd;stroke:none"
             id="path64" /><path
             d="m 728.945,594.543 c -0.468,-0.133 -11.777,-3.355 -21.875,-16.887 -1.062,-1.402 -2.07,-2.992 -3.066,-4.804 -7.5,-13.731 -7.578,-30.719 -7.578,-31.446 l 0.019,-3.019 2.696,1.336 c 0.566,0.289 13.625,6.847 24.707,22.882 11.308,16.375 7.57,30.071 7.402,30.625 l -0.52,1.805 -1.785,-0.492 z m -21.633,-23.508 c 0.911,1.668 1.829,3.098 2.766,4.375 6.887,9.207 14.414,13.258 17.891,14.735 0.097,-0.872 0.207,-1.93 0.207,-3.29 0,-5.058 -1.242,-13.144 -7.422,-22.097 -7.524,-10.871 -16.047,-17.168 -20.395,-19.946 0.411,5.532 1.809,16.848 6.953,26.223"
             style="fill:#00685c;fill-opacity:1;fill-rule:evenodd;stroke:none"
             id="path66" /><path
             d="m 766.309,617.137 c -0.481,-0.078 -12.063,-2.235 -23.321,-15.539 -11.191,-13.215 -13.816,-35.051 -13.926,-35.969 l -0.371,-3.277 2.989,1.339 c 0.578,0.254 13.886,6.235 26.394,21.692 12.754,15.754 10.52,29.652 10.422,30.207 l -0.332,1.867 -1.855,-0.32 z m -20.45,-17.981 c 7.637,9.02 15.45,12.477 19.051,13.676 0.012,-0.09 0.012,-0.137 0.012,-0.25 0,-4.344 -1.121,-14.144 -9.785,-24.84 -8.379,-10.344 -17.176,-16.238 -21.746,-18.887 1.226,6.711 4.644,21.067 12.468,30.301"
             style="fill:#00685c;fill-opacity:1;fill-rule:evenodd;stroke:none"
             id="path68" /><path
             d="m 408.43,430.199 c 0,-91.152 49.336,-178.851 128.75,-228.89 l 3.289,-2.063 2.351,3.09 c 0.676,0.867 0.942,1.695 0.942,2.461 0,1.949 -1.672,3.496 -2.61,4.351 l -4.597,4.414 c -16.367,18.594 -20.754,36.235 -20.754,49.766 0,15 5.359,25 5.801,25.774 l 1.464,2.644 -2.019,2.266 c -33.559,37.433 -51.281,84.511 -51.281,136.187 0,113.672 92.468,206.137 206.152,206.137 31.609,0 61.926,-6.945 90.137,-20.672 l 2.922,-1.426 41.433,47.274 -4.59,2.566 c -39.511,21.996 -84.433,33.606 -129.902,33.606 -147.5,0 -267.488,-120.008 -267.488,-267.485 z m 8.496,0 c 0,142.793 116.172,258.981 258.992,258.981 42.246,0 83.965,-10.469 121.035,-30.11 -5.43,-6.191 -26.875,-30.648 -30.176,-34.402 -28.515,13.355 -59.043,20.176 -90.859,20.176 -118.359,0 -214.668,-96.289 -214.668,-214.645 0,-52.812 17.898,-100.988 51.66,-139.652 -1.941,-4.492 -5.39,-14.328 -5.39,-27.344 0,-10.773 2.492,-23.699 10.078,-37.433 -62.676,49.921 -100.672,125.832 -100.672,204.429"
             style="fill:#00685c;fill-opacity:1;fill-rule:evenodd;stroke:none"
             id="path70" /><path
             d="m 769.746,623.305 c -29.363,14.297 -60.918,21.539 -93.828,21.539 -118.359,0 -214.668,-96.289 -214.668,-214.645 0,-53.789 18.484,-102.847 53.469,-141.871 l 3.679,-4.082 16.309,24.66 -0.859,1.004 c -1.465,0.18 -2.676,0.391 -3.543,0.567 0.222,0.695 0.535,1.566 0.933,2.55 -1.277,1.532 -2.566,3.059 -3.797,4.629 -1.32,-2.101 -2.546,-3.652 -3.41,-4.64 -3.179,3.402 -11.394,13.351 -11.394,25.515 0,0.391 0.019,0.781 0.039,1.176 -15.274,26.871 -23.02,57.168 -23.02,90.492 0,102.696 83.559,186.246 186.262,186.246 25.215,0 49.512,-4.918 72.383,-14.601 2.461,2.543 4.883,4.539 7.121,6.094 -25.031,11.238 -51.731,17.011 -79.504,17.011 -107.395,0 -194.773,-87.367 -194.773,-194.75 0,-46.578 14.531,-87.504 42.996,-121.851 -1.653,-2.5 -3.965,-6.012 -6.621,-10.02 -31.172,36.731 -47.754,82.121 -47.754,131.871 0,113.672 92.468,206.137 206.152,206.137 30.195,0 59.199,-6.426 86.316,-18.953 -1.14,-2.461 -2.234,-4.871 -3.367,-7.27 2.5,1.395 4.602,2.246 6.043,2.719 0.012,-0.09 0.012,-0.137 0.012,-0.25 0,-3.168 -0.613,-9.238 -4.297,-16.441 l 0.969,-0.477 11.902,25.836 -3.75,1.805"
             style="fill:#00685c;fill-opacity:1;fill-rule:evenodd;stroke:none"
             id="path72" /><path
             d="m 767.844,665.379 -20.52,-25.945 c 1.875,-0.649 3.75,-1.321 5.614,-2.012 l 20.363,25.766 c -1.797,0.757 -3.613,1.484 -5.457,2.191"
             style="fill:#00685c;fill-opacity:1;fill-rule:nonzero;stroke:none"
             id="path74" /><path
             d="m 727.676,677.332 -11.961,-29.629 c 1.89,-0.336 3.758,-0.711 5.633,-1.113 l 11.933,29.527 c -1.875,0.442 -3.73,0.824 -5.605,1.215"
             style="fill:#00685c;fill-opacity:1;fill-rule:nonzero;stroke:none"
             id="path76" /><path
             d="m 679.895,682.68 -2.942,-31.41 c 1.895,0 3.789,-0.036 5.664,-0.094 l 2.949,31.359 c -1.894,0.063 -3.781,0.11 -5.671,0.145"
             style="fill:#00685c;fill-opacity:1;fill-rule:nonzero;stroke:none"
             id="path78" /><path
             d="m 633.34,679.137 5.969,-30.895 c 1.863,0.309 3.718,0.59 5.593,0.86 l -5.976,30.918 c -1.864,-0.27 -3.731,-0.567 -5.586,-0.883"
             style="fill:#00685c;fill-opacity:1;fill-rule:nonzero;stroke:none"
             id="path80" /><path
             d="m 588.164,667.012 14.133,-28.344 c 1.797,0.633 3.594,1.242 5.398,1.84 l -14.16,28.418 c -1.805,-0.621 -3.586,-1.262 -5.371,-1.914"
             style="fill:#00685c;fill-opacity:1;fill-rule:nonzero;stroke:none"
             id="path82" /><path
             d="m 545.32,646.273 21.086,-24.07 c 1.66,0.961 3.352,1.899 5.047,2.809 l -21.187,24.207 c -1.661,-0.969 -3.301,-1.949 -4.946,-2.946"
             style="fill:#00685c;fill-opacity:1;fill-rule:nonzero;stroke:none"
             id="path84" /><path
             d="m 506.387,617.227 26.609,-18.481 c 1.496,1.266 3.012,2.516 4.531,3.742 l -26.785,18.61 c -1.465,-1.274 -2.922,-2.563 -4.355,-3.871"
             style="fill:#00685c;fill-opacity:1;fill-rule:nonzero;stroke:none"
             id="path86" /><path
             d="m 473.27,580.746 30.578,-11.898 c 1.242,1.55 2.507,3.082 3.797,4.586 l -30.809,11.996 c -1.211,-1.543 -2.395,-3.11 -3.566,-4.684"
             style="fill:#00685c;fill-opacity:1;fill-rule:nonzero;stroke:none"
             id="path88" /><path
             d="m 447.688,538.281 32.91,-4.593 c 0.933,1.785 1.914,3.554 2.898,5.304 l -33.191,4.621 c -0.891,-1.769 -1.77,-3.547 -2.617,-5.332"
             style="fill:#00685c;fill-opacity:1;fill-rule:nonzero;stroke:none"
             id="path90" /><path
             d="m 430.938,491.676 33.542,3.211 c 0.61,1.957 1.235,3.925 1.887,5.855 l -33.887,-3.23 c -0.539,-1.942 -1.054,-3.883 -1.542,-5.836"
             style="fill:#00685c;fill-opacity:1;fill-rule:nonzero;stroke:none"
             id="path92" /><path
             d="m 423.672,442.867 32.449,11.281 c 0.227,2.082 0.481,4.172 0.766,6.25 L 424.043,448.98 c -0.148,-2.031 -0.273,-4.074 -0.371,-6.113"
             style="fill:#00685c;fill-opacity:1;fill-rule:nonzero;stroke:none"
             id="path94" /><path
             d="m 426.184,393.57 29.312,19.258 c -0.164,2.152 -0.301,4.309 -0.406,6.484 l -29.778,-19.554 c 0.262,-2.074 0.547,-4.121 0.872,-6.188"
             style="fill:#00685c;fill-opacity:1;fill-rule:nonzero;stroke:none"
             id="path96" /><path
             d="m 438.684,345.336 23.796,26.207 c -0.593,2.187 -1.113,4.395 -1.64,6.598 l -24.297,-26.758 c 0.691,-2.024 1.395,-4.039 2.141,-6.047"
             style="fill:#00685c;fill-opacity:1;fill-rule:nonzero;stroke:none"
             id="path98" /><path
             d="m 461.074,299.246 16.824,32.016 c -1.043,2.086 -2.097,4.168 -3.074,6.293 L 457.676,304.93 c 1.101,-1.903 2.234,-3.809 3.398,-5.684"
             style="fill:#00685c;fill-opacity:1;fill-rule:nonzero;stroke:none"
             id="path100" /><path
             d="m 489.746,260.828 8.992,37.11 c -1.48,1.953 -2.945,3.937 -4.363,5.941 l -9.18,-37.863 c 1.493,-1.75 3.02,-3.465 4.551,-5.188"
             style="fill:#00685c;fill-opacity:1;fill-rule:nonzero;stroke:none"
             id="path102" /><path
             d="m 763.645,593.805 c 0.769,-0.512 1.543,-1.032 2.293,-1.539 0.703,0.3 1.374,0.625 2.082,0.882 0.828,0.313 1.636,0.571 2.449,0.84 -1.739,1.141 -3.379,2.43 -4.922,3.789 -0.547,-1.293 -1.192,-2.609 -1.902,-3.972"
             style="fill:#00685c;fill-opacity:1;fill-rule:nonzero;stroke:none"
             id="path104" /><path
             d="m 0.246094,53.5625 0,1.8281 16.210906,0 11.4532,-39.9531 0.1679,0 11.9414,39.9531 16.1836,0 0,-1.8281 -6.1836,0 0,-50.60156 6.1836,0 0,-1.83594 -20.3242,0 0,1.83594 6.2617,0 0,49.60546 -0.1679,0 -15.7696,-51.4414 -2.1093,0 -15.19927,51.4414 -0.16406,0 0,-49.60546 6.09373,0 0,-1.83594 -14.578106,0 0,1.83594 6.089846,0 0,50.60156 -6.089846,0"
             style="fill:#00685c;fill-opacity:1;fill-rule:nonzero;stroke:none"
             id="path106" /><path
             d="m 88.457,23.1133 7.1407,22.0156 0.164,0 6.6603,-22.0156 -13.965,0 z m 0.4883,-21.9883 0,1.83594 -6.9805,0 5.7579,17.89846 15.5073,0 5.61,-17.89846 -6.582,0 0,-1.83594 20.469,0 0,1.83594 -5.696,0 -16.726,53.13286 -3.1566,0 -17.625,-53.13286 -6.4179,0 0,-1.83594 15.8398,0"
             style="fill:#00685c;fill-opacity:1;fill-rule:nonzero;stroke:none"
             id="path108" /><path
             d="m 155.242,1.125 -16.758,0 0,1.83594 6.836,0 14.309,23.83596 -15.449,26.7656 -5.696,0 0,1.8281 20.989,0 0,-1.8281 -6.028,0 11.477,-19.1211 11.555,19.1211 -6.68,0 0,1.8281 16.109,0 0,-1.8281 -6.504,0 -12.937,-21.4844 17.004,-29.11716 5.445,0 0,-1.83594 -21.062,0 0,1.83594 6.503,0 -13.171,21.89066 -13.02,-21.89066 7.078,0 0,-1.83594"
             style="fill:#00685c;fill-opacity:1;fill-rule:nonzero;stroke:none"
             id="path110" /><path
             d="m 205.945,15.9375 19.875,0 0,5.48047 -19.875,0 0,-5.48047 z"
             style="fill:#00685c;fill-opacity:1;fill-rule:nonzero;stroke:none"
             id="path112" /><path
             d="m 257.559,53.5625 2.277,0 c 10.984,0 16.187,-0.8945 16.187,-12.2617 0,-9.0156 -2.437,-13.8125 -15.703,-13.8125 l -2.761,0 0,26.0742 z m -14.305,0 6.414,0 0,-50.60156 -6.98,0 0,-1.83594 22.109,0 0,1.83594 -7.238,0 0,22.69136 3.894,0 c 17.082,0 23.164,8.6524 23.164,15.3165 0,7.1562 -4.707,14.4218 -19.746,14.4218 l -21.617,0 0,-1.8281"
             style="fill:#00685c;fill-opacity:1;fill-rule:nonzero;stroke:none"
             id="path114" /><path
             d="m 300.051,1.125 0,1.83594 6.668,0 0,50.60156 -6.668,0 0,1.8281 22.027,0 0,-1.8281 -7.476,0 0,-50.60156 14.546,0 c 6.664,0 9.836,8.13286 10.813,13.34766 l 1.543,0 -0.899,-15.1836 -40.554,0"
             style="fill:#00685c;fill-opacity:1;fill-rule:nonzero;stroke:none"
             id="path116" /><path
             d="m 370.793,23.1133 7.145,22.0156 0.16,0 6.66,-22.0156 -13.965,0 z m 0.484,-21.9883 0,1.83594 -6.98,0 5.762,17.89846 15.507,0 5.606,-17.89846 -6.582,0 0,-1.83594 20.469,0 0,1.83594 -5.684,0 -16.73,53.13286 -3.165,0 -17.617,-53.13286 -6.414,0 0,-1.83594 15.828,0"
             style="fill:#00685c;fill-opacity:1;fill-rule:nonzero;stroke:none"
             id="path118" /><path
             d="m 428.562,53.5625 -6.343,0 0,1.8281 15.808,0 23.067,-39.2968 0.168,0 0,37.4687 -6.34,0 0,1.8281 14.988,0 0,-1.8281 -6.258,0 0,-53.5625 -2.07,0 -30.461,51.875 -0.164,0 0,-48.91406 6.262,0 0,-1.83594 -15,0 0,1.83594 6.343,0 0,50.60156"
             style="fill:#00685c;fill-opacity:1;fill-rule:nonzero;stroke:none"
             id="path120" /><path
             d="m 528.027,41.0156 -1.828,-0.1094 c -1.707,7.6954 -5.933,13.7813 -14.469,13.7813 -5.207,0 -9.191,-3.5625 -10.824,-6.5625 -3.172,-5.9297 -3.328,-17.4336 -3.328,-21.8867 0,-13.9258 1.707,-23.98049 14.551,-23.98049 7.891,0 12.851,6.5586 15.066,13.66799 l 1.953,0 0,-14.78518 -2.195,0 -2.285,3.39063 C 520.828,1.30078 516.426,0 511.855,0 496.77,0 488.301,13.0273 488.301,28.5938 c 0,15.9648 12.383,27.9179 23.887,27.9179 4.89,0 8.078,-1.5 11.992,-4.2539 l 2.656,2.5781 1.191,-0.1484 0,-13.6719"
             style="fill:#00685c;fill-opacity:1;fill-rule:nonzero;stroke:none"
             id="path122" /><path
             d="m 578.711,53.5625 0,1.8281 16.184,0 0,-1.8281 -6.016,0 -18.813,-20.3008 24.746,-30.30076 3.821,0 0,-1.83594 -20.653,0 0,1.83594 6.5,0 -20.613,26.42576 c -0.246,0.3985 0.078,0.7969 0.653,1.3672 l 21.503,22.8086 -7.312,0 z m -9.387,-52.4375 -20.418,0 0,1.83594 6.262,0 0,50.60156 -6.262,0 0,1.8281 20.418,0 0,-1.8281 -6.277,0 0,-50.60156 6.277,0 0,-1.83594"
             style="fill:#00685c;fill-opacity:1;fill-rule:nonzero;stroke:none"
             id="path124" /><path
             d="m 614.746,15.9375 19.8711,0 0,5.48047 -19.8711,0 0,-5.48047 z"
             style="fill:#00685c;fill-opacity:1;fill-rule:nonzero;stroke:none"
             id="path126" /><path
             d="m 693.691,54.8125 1.27,-0.0469 0,-13.8789 -1.836,-0.0195 c -1.633,8.0508 -7.473,13.8203 -16.555,13.8203 -5.215,0 -9.207,-3.4883 -10.828,-6.4727 -3.183,-5.9179 -3.347,-17.5 -3.347,-21.9531 0,-13.9492 1.707,-24.42576 14.585,-24.42576 11.165,0 11.743,7.46875 11.497,16.63286 l -7.903,0 0,1.9609 22.024,0 0,-1.9609 -4.953,0 C 697.07,9.47266 693.184,0 676.66,0 c -15.078,0 -23.547,13.0352 -23.547,28.6016 0,16.0351 12.383,27.9101 23.867,27.9101 5.708,0 10.364,-1.6679 13.86,-4.8242 l 2.851,3.125"
             style="fill:#00685c;fill-opacity:1;fill-rule:nonzero;stroke:none"
             id="path128" /><path
             d="m 717.383,1.125 0,1.83594 7.148,0 0,50.60156 -7.148,0 0,1.8281 41.23,0 0,-13.2031 -1.797,0 c -1.367,9.6758 -6.386,11.375 -13.789,11.375 l -10.605,0 0,-23.3945 c 8.242,0 10.848,0.0742 11.992,8.6875 l 1.797,0 0,-20.5469 -1.797,0 c -0.488,8.7422 -3.926,9.8047 -11.992,9.8828 l 0,-25.23046 9.863,0 c 10.735,0 14.297,1.30468 16.426,13.39456 l 2.109,0 -1.054,-15.2305 -42.383,0"
             style="fill:#00685c;fill-opacity:1;fill-rule:nonzero;stroke:none"
             id="path130" /><path
             d="m 780.273,0.847656 -1.132,0 0,14.062544 1.535,0 c 2.195,-7.38286 7.801,-13.07426 15.633,-13.07426 7.011,0 13.703,4.61718 13.703,11.75786 0,4.7734 -1.145,6.9609 -7.414,9.4804 -3.028,1.1367 -15.664,5.2656 -16.883,6.0742 -4.719,2.9297 -6.574,7.8711 -6.574,12.4024 0,3.332 0.976,6.1719 3.32,9.25 2.441,3.1523 6.426,5.7109 12.629,5.7109 3.75,0 9.051,-2.3125 10.633,-3.5117 l 3.105,2.3828 1.16,-0.1211 0,-12.5937 -1.668,0 c -1.777,6.7343 -6.574,12.0195 -13.8,12.0195 -5.543,0 -11.571,-3.8203 -11.571,-9.9141 0,-13.4961 30.86,-4.8046 30.86,-26.8125 C 813.809,6.86328 806.836,0 796.191,0 c -4.55,0 -9.101,1.19922 -12.429,4.51172 l -3.489,-3.664064"
             style="fill:#00685c;fill-opacity:1;fill-rule:nonzero;stroke:none"
             id="path132" /><path
             d="m 830.273,1.125 0,1.83594 7.149,0 0,50.60156 -7.149,0 0,1.8281 41.231,0 0,-13.2031 -1.797,0 c -1.387,9.6758 -6.387,11.375 -13.789,11.375 l -10.625,0 0,-23.3945 c 8.242,0 10.859,0.0742 12.012,8.6875 l 1.797,0 0,-20.5469 -1.797,0 c -0.489,8.7422 -3.926,9.8047 -12.012,9.8828 l 0,-25.23046 9.883,0 c 10.722,0 14.277,1.30468 16.418,13.39456 l 2.117,0 -1.066,-15.2305 -42.372,0"
             style="fill:#00685c;fill-opacity:1;fill-rule:nonzero;stroke:none"
             id="path134" /><path
             d="m 891.719,1.125 0,1.83594 6.66,0 0,50.60156 -6.66,0 0,1.8281 22.011,0 0,-1.8281 -7.48,0 0,-50.60156 14.551,0 c 6.66,0 9.844,8.13286 10.82,13.34766 l 1.524,0 -0.879,-15.1836 -40.547,0"
             style="fill:#00685c;fill-opacity:1;fill-rule:nonzero;stroke:none"
             id="path136" /><path
             d="m 948.184,1.125 0,1.83594 6.679,0 0,50.60156 -6.679,0 0,1.8281 22.031,0 0,-1.8281 -7.481,0 0,-50.60156 14.551,0 c 6.66,0 9.824,8.13286 10.82,13.34766 l 1.524,0 -0.879,-15.1836 -40.566,0"
             style="fill:#00685c;fill-opacity:1;fill-rule:nonzero;stroke:none"
             id="path138" /><path
             d="m 1006.13,0.847656 -1.13,0 0,14.062544 1.52,0 c 2.21,-7.38286 7.82,-13.07426 15.65,-13.07426 7.01,0 13.69,4.61718 13.69,11.75786 0,4.7734 -1.13,6.9609 -7.42,9.4804 -3.01,1.1367 -15.65,5.2656 -16.88,6.0742 -4.7,2.9297 -6.56,7.8711 -6.56,12.4024 0,3.332 0.98,6.1719 3.3,9.25 2.46,3.1523 6.45,5.7109 12.64,5.7109 3.75,0 9.06,-2.3125 10.64,-3.5117 l 3.11,2.3828 1.15,-0.1211 0,-12.5937 -1.66,0 c -1.78,6.7343 -6.58,12.0195 -13.81,12.0195 -5.55,0 -11.56,-3.8203 -11.56,-9.9141 0,-13.4961 30.86,-4.8046 30.86,-26.8125 C 1039.67,6.86328 1032.7,0 1022.05,0 c -4.55,0 -9.1,1.19922 -12.44,4.51172 l -3.48,-3.664064"
             style="fill:#00685c;fill-opacity:1;fill-rule:nonzero;stroke:none"
             id="path140" /><path
             d="m 1097.09,41.0156 -1.84,-0.1094 c -1.7,7.6954 -5.93,13.7813 -14.47,13.7813 -5.19,0 -9.18,-3.5625 -10.8,-6.5625 -3.18,-5.9297 -3.34,-17.4336 -3.34,-21.8867 0,-13.9258 1.72,-23.98049 14.55,-23.98049 7.89,0 12.85,6.5586 15.06,13.66799 l 1.95,0 0,-14.78518 -2.18,0 -2.29,3.39063 C 1089.9,1.30078 1085.49,0 1080.92,0 c -15.08,0 -23.56,13.0273 -23.56,28.5938 0,15.9648 12.39,27.9179 23.89,27.9179 4.9,0 8.07,-1.5 11.99,-4.2539 l 2.66,2.5781 1.19,-0.1484 0,-13.6719"
             style="fill:#00685c;fill-opacity:1;fill-rule:nonzero;stroke:none"
             id="path142" /><path
             d="m 1155.66,30.293 0,23.2695 -6.34,0 0,1.8281 20.56,0 0,-1.8281 -6.34,0 0,-50.60156 6.34,0 0,-1.83594 -20.56,0 0,1.83594 6.34,0 0,24.96096 -23.41,0 0,-24.96096 6.34,0 0,-1.83594 -20.56,0 0,1.83594 6.35,0 0,50.60156 -6.35,0 0,1.8281 20.56,0 0,-1.8281 -6.34,0 0,-23.2695 23.41,0"
             style="fill:#00685c;fill-opacity:1;fill-rule:nonzero;stroke:none"
             id="path144" /><path
             d="m 1201.78,23.1133 7.17,22.0156 0.15,0 6.66,-22.0156 -13.98,0 z m 0.51,-21.9883 0,1.83594 -7,0 5.76,17.89846 15.51,0 5.61,-17.89846 -6.56,0 0,-1.83594 20.44,0 0,1.83594 -5.68,0 -16.74,53.13286 -3.14,0 -17.62,-53.13286 -6.42,0 0,-1.83594 15.84,0"
             style="fill:#00685c;fill-opacity:1;fill-rule:nonzero;stroke:none"
             id="path146" /><path
             d="m 1253.13,1.125 0,1.83594 6.58,0 0,50.60156 -6.58,0 0,1.8281 39.64,0 0.67,-14.3672 -1.47,0 c -2.52,9.8438 -3.9,12.5391 -14.08,12.5391 l -10.31,0 0,-23.6797 c 7.22,0.0781 10.49,0.3203 11.29,8.4649 l 1.83,0 0,-19.9805 -1.75,0 c -0.57,8.3203 -3.81,9.5312 -11.37,9.5312 l 0,-24.93746 6.99,0 0,-1.83594 -21.44,0"
             style="fill:#00685c;fill-opacity:1;fill-rule:nonzero;stroke:none"
             id="path148" /><path
             d="m 1318.46,1.125 0,1.83594 6.75,0 0,50.60156 -5.52,0 c -7.72,0 -8.54,-5.7813 -10.08,-13.8359 l -2.13,0 0.9,15.664 41.91,0 0.57,-15.664 -2.11,0 c -0.9,7.7226 -3.59,13.8359 -12.07,13.8359 l -3.57,0 0,-50.60156 6.75,0 0,-1.83594 -21.4,0"
             style="fill:#00685c;fill-opacity:1;fill-rule:nonzero;stroke:none"
             id="path150" /><path
             d="m 0,84.3867 1351.84,0"
             style="fill:none;stroke:#00685c;stroke-opacity:1;stroke-width:3;stroke-linecap:butt;stroke-linejoin:miter;stroke-miterlimit:10;stroke-dasharray:none"
             id="path152" /></g></g></g></g></svg>