<?xml version="1.0" encoding="UTF-8" standalone="no"?>
<!-- Created with Inkscape (http://www.inkscape.org/) -->

<svg
   xmlns:dc="http://purl.org/dc/elements/1.1/"
   xmlns:cc="http://creativecommons.org/ns#"
   xmlns:rdf="http://www.w3.org/1999/02/22-rdf-syntax-ns#"
   xmlns:svg="http://www.w3.org/2000/svg"
   xmlns="http://www.w3.org/2000/svg"
   xmlns:sodipodi="http://sodipodi.sourceforge.net/DTD/sodipodi-0.dtd"
   xmlns:inkscape="http://www.inkscape.org/namespaces/inkscape"
   id="svg2"
   version="1.1"
   inkscape:version="0.48.4 r9939"
   width="255.11811"
   height="177.16535"
   xml:space="preserve"
   sodipodi:docname="MPP-Logo.pdf"><metadata
     id="metadata8"><rdf:RDF><cc:Work
         rdf:about=""><dc:format>image/svg+xml</dc:format><dc:type
           rdf:resource="http://purl.org/dc/dcmitype/StillImage" /><dc:title></dc:title></cc:Work></rdf:RDF></metadata><defs
     id="defs6"><clipPath
       clipPathUnits="userSpaceOnUse"
       id="clipPath18"><path
         d="m 0,142.24252 204.089,0 0,-141.846 -204.089,0 0,141.846 z"
         clip-rule="evenodd"
         id="path20" /></clipPath></defs><sodipodi:namedview
     pagecolor="#ffffff"
     bordercolor="#666666"
     borderopacity="1"
     objecttolerance="10"
     gridtolerance="10"
     guidetolerance="10"
     inkscape:pageopacity="0"
     inkscape:pageshadow="2"
     inkscape:window-width="649"
     inkscape:window-height="480"
     id="namedview4"
     showgrid="false"
     inkscape:zoom="1.332089"
     inkscape:cx="127.55905"
     inkscape:cy="88.582672"
     inkscape:window-x="80"
     inkscape:window-y="36"
     inkscape:window-maximized="0"
     inkscape:current-layer="g10" /><g
     id="g10"
     inkscape:groupmode="layer"
     inkscape:label="MPP-Logo"
     transform="matrix(1.25,0,0,-1.25,0,177.16535)"><g
       id="g12"><g
         id="g14"><g
           id="g16"
           clip-path="url(#clipPath18)"><g
             id="g22"><g
               id="g24"
               transform="translate(47.15036,10.10024)"><path
                 d="M 1.4961,-9.242 C 1.128,-7.755 0.833,-6.206 0.833,-4.668 0.833,-3.13 1.1065,-1.476 1.4961,0 L 0.9385,0 C 0.4434,-1.487 0,-3.088 0,-4.668 0,-6.206 0.4434,-7.787 0.917,-9.242 l 0.5791,0 z"
                 style="fill:#007b6c;fill-opacity:1;fill-rule:nonzero;stroke:none"
                 id="path26" /></g></g><g
             id="g28"><g
               id="g30"
               transform="translate(49.45806,10.10024)"><path
                 d="M 8.3339,0 7.4804,0 6.0898,-6.659 4.7626,0 3.6875,0 2.2548,-6.659 0.9482,0 0,0 l 1.6865,-7.618 1.0742,0 1.4121,6.679 1.3379,-6.679 1.0742,0 L 8.3339,0 z"
                 style="fill:#007b6c;fill-opacity:1;fill-rule:nonzero;stroke:none"
                 id="path32" /></g></g><g
             id="g34"><g
               id="g36"
               transform="translate(58.10546,7.90724)"><path
                 d="m 3.6348,-2.886 0,0.242 C 3.6348,-1.358 3.5928,0 1.8858,0 0.0742,0 0,-1.558 0,-2.981 c 0,-1.391 0.2002,-2.561 1.8223,-2.561 1.2969,0 1.7392,0.696 1.7812,1.782 l -0.8222,0 c -0.0205,-0.622 -0.168,-1.17 -0.959,-1.17 -0.8955,0 -0.9688,0.811 -0.9688,1.685 l 0,0.359 2.7813,0 z m -0.8428,0.569 -1.9385,0 c 0,0.242 0.0215,0.464 0.042,0.685 0.0742,0.589 0.3164,1.032 0.9805,1.032 0.6318,0 0.8418,-0.495 0.8945,-1.043 C 2.792,-1.875 2.792,-2.096 2.792,-2.317 z"
                 style="fill:#007b6c;fill-opacity:1;fill-rule:evenodd;stroke:none"
                 id="path38" /></g></g><g
             id="g40"><g
               id="g42"
               transform="translate(62.86226,7.89824)"><path
                 d="m 2.2549,-0.801 0,0.801 C 2.2344,0 2.1915,0 2.1709,0 1.5704,0 1.1065,-0.275 0.8223,-0.801 l 0,0.695 -0.8223,0 c 0.0215,-0.232 0.0323,-0.727 0.0323,-0.97 l 0,-4.34 0.8427,0 0,3.287 c 0,0.78 0.3682,1.348 1.2012,1.348 0.0635,0 0.1153,-0.01 0.1787,-0.02 z"
                 style="fill:#007b6c;fill-opacity:1;fill-rule:evenodd;stroke:none"
                 id="path44" /></g></g><g
             id="g46"><g
               id="g48"
               transform="translate(65.91506,7.90724)"><path
                 d="m 3.6035,-5.425 0,3.772 C 3.6035,-0.653 3.2656,0 2.2021,0 1.5273,0 1.0537,-0.4 0.8213,-0.842 l 0,0.727 -0.8213,0 c 0.0312,-0.391 0.042,-0.769 0.042,-1.159 l 0,-4.151 0.832,0 0,3.192 c 0,0.717 0.2949,1.601 1.0752,1.601 0.832,0 0.8213,-0.758 0.8213,-1.401 l 0,-3.392 0.833,0 z"
                 style="fill:#007b6c;fill-opacity:1;fill-rule:evenodd;stroke:none"
                 id="path50" /></g></g><g
             id="g52"><g
               id="g54"
               transform="translate(70.71586,7.90724)"><path
                 d="m 3.6347,-2.886 0,0.242 C 3.6347,-1.358 3.5927,0 1.8857,0 0.0732,0 0,-1.558 0,-2.981 c 0,-1.391 0.2002,-2.561 1.8222,-2.561 1.2959,0 1.7383,0.696 1.7813,1.782 l -0.8223,0 c -0.0205,-0.622 -0.1689,-1.17 -0.959,-1.17 -0.8955,0 -0.9687,0.811 -0.9687,1.685 l 0,0.359 2.7812,0 z m -0.8427,0.569 -1.9385,0 c 0,0.242 0.0205,0.464 0.042,0.685 0.0732,0.589 0.3154,1.032 0.9795,1.032 0.6328,0 0.8427,-0.495 0.8955,-1.043 C 2.792,-1.875 2.792,-2.096 2.792,-2.317 z"
                 style="fill:#007b6c;fill-opacity:1;fill-rule:evenodd;stroke:none"
                 id="path56" /></g></g><g
             id="g58"><g
               id="g60"
               transform="translate(75.47266,7.89824)"><path
                 d="m 2.2549,-0.801 0,0.801 C 2.2334,0 2.1914,0 2.1709,0 1.5703,0 1.1064,-0.275 0.8223,-0.801 l 0,0.695 -0.8223,0 c 0.0215,-0.232 0.0312,-0.727 0.0312,-0.97 l 0,-4.34 0.8438,0 0,3.287 c 0,0.78 0.3682,1.348 1.2002,1.348 0.0635,0 0.1162,-0.01 0.1797,-0.02 z"
                 style="fill:#007b6c;fill-opacity:1;fill-rule:evenodd;stroke:none"
                 id="path62" /></g></g><g
             id="g64"><g
               id="g66"
               transform="translate(77.90336,5.67424)"><path
                 d="M 2.1709,-0.727 2.1709,0 0,0 l 0,-0.727 2.1709,0 z"
                 style="fill:#007b6c;fill-opacity:1;fill-rule:nonzero;stroke:none"
                 id="path68" /></g></g><g
             id="g70"><g
               id="g72"
               transform="translate(81.33596,10.10024)"><path
                 d="m 4.3623,-7.618 0,7.618 -0.8965,0 0,-3.33 -2.5703,0 0,3.33 L 0,0 l 0,-7.618 0.8955,0 0,3.572 2.5703,0 0,-3.572 0.8965,0 z"
                 style="fill:#007b6c;fill-opacity:1;fill-rule:nonzero;stroke:none"
                 id="path74" /></g></g><g
             id="g76"><g
               id="g78"
               transform="translate(87.03416,7.90724)"><path
                 d="m 3.6348,-2.886 0,0.242 C 3.6348,-1.358 3.5928,0 1.8858,0 0.0742,0 0,-1.558 0,-2.981 c 0,-1.391 0.2002,-2.561 1.8233,-2.561 1.2959,0 1.7382,0.696 1.7802,1.782 l -0.8222,0 c -0.0205,-0.622 -0.168,-1.17 -0.958,-1.17 -0.8965,0 -0.9698,0.811 -0.9698,1.685 l 0,0.359 2.7813,0 z m -0.8428,0.569 -1.9385,0 c 0,0.242 0.0215,0.464 0.042,0.685 0.0742,0.589 0.3164,1.032 0.9805,1.032 0.6318,0 0.8428,-0.495 0.8955,-1.043 C 2.792,-1.875 2.792,-2.096 2.792,-2.317 z"
                 style="fill:#007b6c;fill-opacity:1;fill-rule:evenodd;stroke:none"
                 id="path80" /></g></g><g
             id="g82"><g
               id="g84"
               transform="translate(91.79196,9.99324)"><path
                 d="M 0.9161,-0.905 0.9161,0 0,0 l 0,-0.905 0.9161,0 z m -0.042,-6.606 0,5.31 -0.8321,0 0,-5.31 0.8321,0 z"
                 style="fill:#007b6c;fill-opacity:1;fill-rule:evenodd;stroke:none"
                 id="path86" /></g></g><g
             id="g88"><g
               id="g90"
               transform="translate(93.74996,7.90724)"><path
                 d="m 3.2657,-3.971 c 0,0.895 -0.6006,1.232 -1.2637,1.59 -0.6006,0.328 -1.0537,0.548 -1.0537,1.076 0,0.431 0.2734,0.726 0.706,0.726 0.5059,0 0.6739,-0.273 0.7266,-0.653 0.0107,-0.106 0.0215,-0.222 0.0215,-0.337 l 0.832,0 c 0,0.147 -0.0107,0.295 -0.0312,0.421 C 3.0762,-0.347 2.6123,0 1.6963,0 0.8008,0 0.1153,-0.431 0.1153,-1.38 c 0,-0.917 0.622,-1.179 1.3496,-1.57 0.6103,-0.326 0.958,-0.516 0.958,-1.158 0,-0.517 -0.2734,-0.822 -0.8008,-0.822 -0.5478,0 -0.7373,0.327 -0.7793,0.833 -0.0107,0.084 -0.0107,0.199 -0.0107,0.295 L 0,-3.802 c 0,-0.138 0,-0.275 0.0108,-0.37 0.0732,-0.906 0.6006,-1.359 1.5908,-1.359 1.0215,0 1.6641,0.495 1.6641,1.56 z"
                 style="fill:#007b6c;fill-opacity:1;fill-rule:nonzero;stroke:none"
                 id="path92" /></g></g><g
             id="g94"><g
               id="g96"
               transform="translate(97.89846,7.90724)"><path
                 d="m 3.6362,-2.886 0,0.242 C 3.6362,-1.358 3.5932,0 1.8872,0 0.0742,0 0,-1.558 0,-2.981 c 0,-1.391 0.2002,-2.561 1.8232,-2.561 1.296,0 1.738,0.696 1.78,1.782 l -0.821,0 c -0.021,-0.622 -0.169,-1.17 -0.959,-1.17 -0.8955,0 -0.9697,0.811 -0.9697,1.685 l 0,0.359 2.7827,0 z m -0.844,0.569 -1.9387,0 c 0,0.242 0.0215,0.464 0.042,0.685 0.0742,0.589 0.3164,1.032 0.9807,1.032 0.632,0 0.843,-0.495 0.895,-1.043 0.021,-0.232 0.021,-0.453 0.021,-0.674 z"
                 style="fill:#007b6c;fill-opacity:1;fill-rule:evenodd;stroke:none"
                 id="path98" /></g></g><g
             id="g100"><g
               id="g102"
               transform="translate(102.65666,7.90724)"><path
                 d="m 3.602,-5.425 0,3.772 C 3.602,-0.653 3.265,0 2.202,0 1.527,0 1.053,-0.4 0.821,-0.842 l 0,0.727 -0.821,0 c 0.031,-0.391 0.042,-0.769 0.042,-1.159 l 0,-4.151 0.832,0 0,3.192 c 0,0.717 0.295,1.601 1.075,1.601 0.832,0 0.821,-0.758 0.821,-1.401 l 0,-3.392 0.832,0 z"
                 style="fill:#007b6c;fill-opacity:1;fill-rule:evenodd;stroke:none"
                 id="path104" /></g></g><g
             id="g106"><g
               id="g108"
               transform="translate(107.62466,10.10024)"><path
                 d="m 3.709,-4.868 c 0,0.864 -0.052,1.759 -0.506,2.265 -0.231,0.253 -0.568,0.41 -1.053,0.41 -0.527,0 -0.927,-0.189 -1.275,-0.653 l 0,2.846 -0.833,0 0,-6.607 C 0.042,-6.86 0.011,-7.366 0,-7.618 l 0.812,0 0.011,0.611 c 0.305,-0.495 0.653,-0.706 1.254,-0.706 0.484,0 0.811,0.158 1.053,0.4 0.527,0.537 0.579,1.56 0.579,2.445 z m -0.853,0.01 c 0,-0.885 -0.042,-1.432 -0.295,-1.834 -0.148,-0.231 -0.337,-0.399 -0.664,-0.399 -0.432,0 -0.674,0.221 -0.832,0.516 -0.222,0.421 -0.211,1.042 -0.211,1.59 0,0.59 0.011,1.36 0.327,1.802 0.157,0.222 0.39,0.38 0.727,0.38 0.316,0 0.516,-0.148 0.664,-0.358 0.284,-0.412 0.284,-1.138 0.284,-1.697 z"
                 style="fill:#007b6c;fill-opacity:1;fill-rule:evenodd;stroke:none"
                 id="path110" /></g></g><g
             id="g112"><g
               id="g114"
               transform="translate(112.32366,7.90724)"><path
                 d="m 3.634,-2.886 0,0.242 C 3.634,-1.358 3.592,0 1.885,0 0.073,0 0,-1.558 0,-2.981 c 0,-1.391 0.2,-2.561 1.822,-2.561 1.296,0 1.738,0.696 1.781,1.782 l -0.822,0 C 2.76,-4.382 2.612,-4.93 1.822,-4.93 c -0.896,0 -0.969,0.811 -0.969,1.685 l 0,0.359 2.781,0 z m -0.842,0.569 -1.939,0 c 0,0.242 0.021,0.464 0.042,0.685 0.074,0.589 0.317,1.032 0.98,1.032 0.632,0 0.842,-0.495 0.895,-1.043 0.022,-0.232 0.022,-0.453 0.022,-0.674 z"
                 style="fill:#007b6c;fill-opacity:1;fill-rule:evenodd;stroke:none"
                 id="path116" /></g></g><g
             id="g118"><g
               id="g120"
               transform="translate(117.07966,7.89824)"><path
                 d="M 2.255,-0.801 2.255,0 C 2.234,0 2.192,0 2.171,0 1.571,0 1.107,-0.275 0.823,-0.801 l 0,0.695 -0.823,0 c 0.022,-0.232 0.033,-0.727 0.033,-0.97 l 0,-4.34 0.842,0 0,3.287 c 0,0.78 0.369,1.348 1.202,1.348 0.062,0 0.115,-0.01 0.178,-0.02 z"
                 style="fill:#007b6c;fill-opacity:1;fill-rule:evenodd;stroke:none"
                 id="path122" /></g></g><g
             id="g124"><g
               id="g126"
               transform="translate(119.83766,7.90724)"><path
                 d="m 3.719,-0.115 -0.832,0 0,-0.622 C 2.613,-0.22 2.254,0 1.612,0 0.168,0 0,-1.474 0,-2.823 c 0,-1.181 0.115,-2.539 1.602,-2.539 0.548,0 0.905,0.168 1.232,0.621 0,-0.115 0,-0.726 0,-0.726 0,-0.854 -0.116,-1.476 -1.001,-1.476 -0.632,0 -0.822,0.4 -0.822,0.97 l -0.885,0 c 0.011,-1.076 0.579,-1.538 1.665,-1.538 1.317,0 1.897,0.547 1.897,1.854 l 0,4.656 c 0,0.295 0.031,0.601 0.031,0.886 z M 2.855,-2.601 c 0,-0.801 0.032,-2.182 -1.064,-2.182 -0.917,0 -0.937,1.085 -0.937,1.96 0,0.959 0.01,2.202 0.99,2.202 0.958,0 1.011,-1.095 1.011,-1.98 z"
                 style="fill:#007b6c;fill-opacity:1;fill-rule:evenodd;stroke:none"
                 id="path128" /></g></g><g
             id="g130"><g
               id="g132"
               transform="translate(124.64066,5.67424)"><path
                 d="M 2.17,-0.727 2.17,0 0,0 l 0,-0.727 2.17,0 z"
                 style="fill:#007b6c;fill-opacity:1;fill-rule:nonzero;stroke:none"
                 id="path134" /></g></g><g
             id="g136"><g
               id="g138"
               transform="translate(128.07366,10.10024)"><path
                 d="M 0.895,-7.618 0.895,0 0,0 l 0,-7.618 0.895,0 z"
                 style="fill:#007b6c;fill-opacity:1;fill-rule:nonzero;stroke:none"
                 id="path140" /></g></g><g
             id="g142"><g
               id="g144"
               transform="translate(130.47266,7.90724)"><path
                 d="m 3.604,-5.425 0,3.772 C 3.604,-0.653 3.267,0 2.202,0 1.527,0 1.054,-0.4 0.822,-0.842 l 0,0.727 -0.822,0 c 0.031,-0.391 0.042,-0.769 0.042,-1.159 l 0,-4.151 0.832,0 0,3.192 c 0,0.717 0.296,1.601 1.075,1.601 0.832,0 0.822,-0.758 0.822,-1.401 l 0,-3.392 0.833,0 z"
                 style="fill:#007b6c;fill-opacity:1;fill-rule:evenodd;stroke:none"
                 id="path146" /></g></g><g
             id="g148"><g
               id="g150"
               transform="translate(135.15766,7.90724)"><path
                 d="m 3.266,-3.971 c 0,0.895 -0.6,1.232 -1.264,1.59 -0.601,0.328 -1.054,0.548 -1.054,1.076 0,0.431 0.274,0.726 0.706,0.726 0.506,0 0.675,-0.273 0.727,-0.653 0.01,-0.106 0.021,-0.222 0.021,-0.337 l 0.833,0 c 0,0.147 -0.011,0.295 -0.032,0.421 C 3.077,-0.347 2.613,0 1.696,0 0.8,0 0.116,-0.431 0.116,-1.38 c 0,-0.917 0.622,-1.179 1.348,-1.57 0.612,-0.326 0.959,-0.516 0.959,-1.158 0,-0.517 -0.274,-0.822 -0.8,-0.822 -0.548,0 -0.738,0.327 -0.781,0.833 -0.009,0.084 -0.009,0.199 -0.009,0.295 l -0.833,0 c 0,-0.138 0,-0.275 0.01,-0.37 0.075,-0.906 0.601,-1.359 1.591,-1.359 1.023,0 1.665,0.495 1.665,1.56 z"
                 style="fill:#007b6c;fill-opacity:1;fill-rule:nonzero;stroke:none"
                 id="path152" /></g></g><g
             id="g154"><g
               id="g156"
               transform="translate(138.96966,9.14124)"><path
                 d="m 2.602,-6.659 0,0.653 C 2.465,-6.028 2.339,-6.048 2.223,-6.048 1.77,-6.048 1.622,-5.901 1.622,-5.3 l 0,3.34 0.948,0 0,0.611 -0.948,0 0,1.349 -0.832,-0.369 0,-0.98 -0.79,0 0,-0.611 0.79,0 0,-3.435 c 0,-0.928 0.2,-1.317 1.201,-1.317 0.2,0 0.41,0.021 0.611,0.053 z"
                 style="fill:#007b6c;fill-opacity:1;fill-rule:nonzero;stroke:none"
                 id="path158" /></g></g><g
             id="g160"><g
               id="g162"
               transform="translate(142.41066,9.99324)"><path
                 d="M 0.916,-0.905 0.916,0 0,0 l 0,-0.905 0.916,0 z m -0.041,-6.606 0,5.31 -0.833,0 0,-5.31 0.833,0 z"
                 style="fill:#007b6c;fill-opacity:1;fill-rule:evenodd;stroke:none"
                 id="path164" /></g></g><g
             id="g166"><g
               id="g168"
               transform="translate(144.14766,9.14124)"><path
                 d="m 2.602,-6.659 0,0.653 C 2.466,-6.028 2.339,-6.048 2.223,-6.048 c -0.453,0 -0.6,0.147 -0.6,0.748 l 0,3.34 0.948,0 0,0.611 -0.948,0 0,1.349 -0.833,-0.369 0,-0.98 -0.79,0 0,-0.611 0.79,0 0,-3.435 c 0,-0.928 0.2,-1.317 1.201,-1.317 0.2,0 0.411,0.021 0.611,0.053 z"
                 style="fill:#007b6c;fill-opacity:1;fill-rule:nonzero;stroke:none"
                 id="path170" /></g></g><g
             id="g172"><g
               id="g174"
               transform="translate(147.63066,7.79224)"><path
                 d="m 3.604,-5.31 c -0.032,0.389 -0.042,0.769 -0.042,1.169 l 0,4.141 -0.843,0 0,-3.225 c 0,-0.715 -0.148,-1.548 -1.043,-1.548 -0.833,0 -0.843,0.758 -0.843,1.381 L 0.833,0 0,0 0,-3.762 c 0,-0.979 0.38,-1.643 1.423,-1.643 0.601,0 1.032,0.273 1.338,0.768 l 0.011,-0.673 0.832,0 z"
                 style="fill:#007b6c;fill-opacity:1;fill-rule:nonzero;stroke:none"
                 id="path176" /></g></g><g
             id="g178"><g
               id="g180"
               transform="translate(152.05266,9.14124)"><path
                 d="m 2.603,-6.659 0,0.653 c -0.138,-0.022 -0.264,-0.042 -0.38,-0.042 -0.453,0 -0.6,0.147 -0.6,0.748 l 0,3.34 0.947,0 0,0.611 -0.947,0 0,1.349 -0.833,-0.369 0,-0.98 -0.79,0 0,-0.611 0.79,0 0,-3.435 c 0,-0.928 0.2,-1.317 1.201,-1.317 0.2,0 0.411,0.021 0.612,0.053 z"
                 style="fill:#007b6c;fill-opacity:1;fill-rule:nonzero;stroke:none"
                 id="path182" /></g></g><g
             id="g184"><g
               id="g186"
               transform="translate(155.44166,10.10024)"><path
                 d="M 1.496,-4.542 C 1.496,-3.003 1.064,-1.445 0.579,0 0.579,0 0.01,-0.011 0,0 0.411,-1.465 0.664,-3.067 0.664,-4.584 0.664,-6.143 0.358,-7.724 0,-9.242 l 0.558,0 c 0.485,1.498 0.938,3.12 0.938,4.7 z"
                 style="fill:#007b6c;fill-opacity:1;fill-rule:nonzero;stroke:none"
                 id="path188" /></g></g><g
             id="g190"><g
               id="g192"
               transform="translate(0.24609,27.44024)"><path
                 d="m 1.26465,-0.388 0,-10.485 -1.26465,0 0,-0.388 3.03515,0 0,0.388 -1.26464,0 0,10.283 0.0332,0 3.15332,-10.671 0.43848,0 3.26953,10.671 0.03418,0 0,-10.283 -1.29883,0 0,-0.388 4.21491,0 0,0.388 -1.2813,0 0,10.485 1.2813,0 0,0.388 -3.35456,0 -2.47852,-8.294 -0.0332,0 L 3.37207,0 0,0 l 0,-0.388 1.26465,0 z"
                 style="fill:#007b6c;fill-opacity:1;fill-rule:nonzero;stroke:none"
                 id="path194" /></g></g><g
             id="g196"><g
               id="g198"
               transform="translate(13.20896,23.02324)"><path
                 d="M 6.4903,-5.681 C 6.4053,-5.968 6.2373,-6.44 5.9004,-6.44 c -0.3545,0 -0.3545,0.27 -0.3545,0.775 l 0,4.023 c 0,0.669 0,1.642 -2.292,1.642 -2.0068,0 -2.6982,-1.006 -2.6982,-1.609 0,-0.468 0.2529,-0.802 0.708,-0.802 0.4219,0 0.6914,0.285 0.6914,0.703 0,0.551 -0.5059,0.635 -0.5059,0.769 0,0.484 1.1973,0.602 1.5684,0.602 0.5899,0 1.2139,-0.235 1.2139,-1.021 l 0,-1.609 C 1.6524,-2.967 0.0508,-3.844 0,-5.412 c 0,-1.247 0.9102,-1.652 1.9717,-1.652 0.8604,0 1.7031,0.32 2.2764,1.028 0.1181,-0.623 0.4717,-1.028 1.0957,-1.028 0.7754,0 1.3818,0.59 1.4326,1.383 l -0.2861,0 z m -2.2588,0.792 c 0,-0.708 -0.2364,-0.894 -0.3711,-1.028 -0.4043,-0.355 -0.7588,-0.49 -1.2979,-0.49 -0.7754,0 -1.2988,0.506 -1.2988,1.332 0,1.551 1.8721,1.737 2.9678,1.753 l 0,-1.567 z"
                 style="fill:#007b6c;fill-opacity:1;fill-rule:evenodd;stroke:none"
                 id="path200" /></g></g><g
             id="g202"><g
               id="g204"
               transform="translate(20.32126,22.85424)"><path
                 d="m 2.4444,-6.287 -0.9112,0 1.6358,2.41 1.5674,-2.41 -0.876,0 0,-0.388 3.1181,0 0,0.388 -0.8261,0 -2.292,3.455 1.7187,2.444 0.961,0 0,0.388 -2.4102,0 0,-0.388 0.9444,0 -1.4502,-2.107 -1.3819,2.107 0.9102,0 0,0.388 L 0,0 l 0,-0.388 0.8936,0 2.039,-3.135 -1.9218,-2.764 -1.0108,0 0,-0.388 2.4444,0 0,0.388 z"
                 style="fill:#007b6c;fill-opacity:1;fill-rule:evenodd;stroke:none"
                 id="path206" /></g></g><g
             id="g208"><g
               id="g210"
               transform="translate(28.34376,20.39324)"><path
                 d="M 4.1299,-1.129 4.1299,0 0,0 l 0,-1.129 4.1299,0 z"
                 style="fill:#007b6c;fill-opacity:1;fill-rule:nonzero;stroke:none"
                 id="path212" /></g></g><g
             id="g214"><g
               id="g216"
               transform="translate(33.63186,27.44024)"><path
                 d="m 0.1181,-0.388 1.3311,0 0,-10.485 -1.4492,0 0,-0.388 4.5849,0 0,0.388 -1.5,0 0,4.686 0.8096,0 c 3.5401,0 4.8037,1.804 4.8037,3.186 C 8.6982,-1.518 7.7207,0 4.6025,0 l -4.4844,0 0,-0.388 z m 2.9668,0 0.4717,0 c 2.2764,0 3.3555,-0.186 3.3555,-2.546 0,-1.871 -0.5059,-2.865 -3.2539,-2.865 l -0.5733,0 0,5.411 z"
                 style="fill:#007b6c;fill-opacity:1;fill-rule:evenodd;stroke:none"
                 id="path218" /></g></g><g
             id="g220"><g
               id="g222"
               transform="translate(42.91896,27.94524)"><path
                 d="m 3.9111,-11.766 0,0.388 -1.2988,0 0,11.378 C 2.0058,-0.118 1.3486,-0.152 0.7246,-0.152 l -0.7246,0 0,-0.388 1.2978,0 0,-10.838 -1.2978,0 0,-0.388 3.9111,0 z"
                 style="fill:#007b6c;fill-opacity:1;fill-rule:nonzero;stroke:none"
                 id="path224" /></g></g><g
             id="g226"><g
               id="g228"
               transform="translate(47.83886,23.02324)"><path
                 d="M 6.4902,-5.681 C 6.4063,-5.968 6.2373,-6.44 5.9004,-6.44 c -0.3545,0 -0.3545,0.27 -0.3545,0.775 l 0,4.023 c 0,0.669 0,1.642 -2.292,1.642 -2.0068,0 -2.6972,-1.006 -2.6972,-1.609 0,-0.468 0.2529,-0.802 0.707,-0.802 0.4219,0 0.6914,0.285 0.6914,0.703 0,0.551 -0.5059,0.635 -0.5059,0.769 0,0.484 1.1973,0.602 1.5684,0.602 0.5898,0 1.2139,-0.235 1.2139,-1.021 l 0,-1.609 C 1.6524,-2.967 0.0508,-3.844 0,-5.412 c 0,-1.247 0.9102,-1.652 1.9727,-1.652 0.8593,0 1.7021,0.32 2.2754,1.028 0.1181,-0.623 0.4716,-1.028 1.0957,-1.028 0.7754,0 1.3828,0.59 1.4326,1.383 l -0.2862,0 z m -2.2587,0.792 c 0,-0.708 -0.2364,-0.894 -0.3711,-1.028 -0.4043,-0.355 -0.7588,-0.49 -1.2979,-0.49 -0.7754,0 -1.2988,0.506 -1.2988,1.332 0,1.551 1.8721,1.737 2.9678,1.753 l 0,-1.567 z"
                 style="fill:#007b6c;fill-opacity:1;fill-rule:evenodd;stroke:none"
                 id="path230" /></g></g><g
             id="g232"><g
               id="g234"
               transform="translate(55.23726,23.02324)"><path
                 d="m 0.9278,-6.456 -0.9278,0 0,-0.388 3.1524,0 0,0.388 -0.9102,0 0,3.134 c 0,1.265 0.877,2.832 2.0235,2.832 0.6738,0 1.0615,-0.184 1.0615,-1.416 l 0,-4.55 -0.877,0 0,-0.388 3.1026,0 0,0.388 -0.9102,0 0,4.77 C 6.6426,-0.135 5.2432,0 4.6358,0 3.4053,0 2.7481,-0.725 2.2764,-1.788 l -0.0342,0 0,1.788 C 1.9385,-0.068 1.6182,-0.119 1.2979,-0.135 0.9952,-0.169 0.6749,-0.169 0.3545,-0.169 l -0.3545,0 0,-0.388 0.9278,0 0,-5.899 z"
                 style="fill:#007b6c;fill-opacity:1;fill-rule:nonzero;stroke:none"
                 id="path236" /></g></g><g
             id="g238"><g
               id="g240"
               transform="translate(63.73536,23.02324)"><path
                 d="M 5.8662,-4.754 C 5.4609,-5.968 4.5176,-6.76 3.54,-6.709 c -0.8769,0.05 -1.3994,0.404 -1.6523,0.961 -0.1016,0.235 -0.3545,1.01 -0.3545,2.022 0,2.208 0.4219,3.389 2.04,3.389 0.3711,0 1.4327,-0.186 1.4327,-0.641 0,-0.186 -0.5391,-0.27 -0.5391,-0.928 0,-0.488 0.3369,-0.792 0.792,-0.792 0.4726,0 0.7588,0.439 0.7588,0.894 C 6.0176,-0.506 4.4668,0 3.3711,0 2.4102,0 0,-0.725 0,-3.726 c 0,-1.163 0.792,-3.338 3.4043,-3.338 1.7539,0.067 2.4277,1.112 2.8154,2.31 l -0.3535,0 z"
                 style="fill:#007b6c;fill-opacity:1;fill-rule:evenodd;stroke:none"
                 id="path242" /></g></g><g
             id="g244"><g
               id="g246"
               transform="translate(71.18456,27.94524)"><path
                 d="m 5.0567,-5.479 0,-0.05 -2.8487,-2.428 2.8155,-3.421 -0.8428,0 0,-0.388 3.2021,0 0,0.388 -0.708,0 -3.2021,3.876 2.3261,2.023 1.0284,0 0,0.388 -2.7647,0 0,-0.388 0.9942,0 z m -1.8545,-6.287 0,0.388 -1.0108,0 0,11.378 C 1.584,-0.118 0.9268,-0.152 0.3027,-0.152 l -0.3027,0 0,-0.388 0.876,0 0,-10.838 -0.876,0 0,-0.388 3.2022,0 z"
                 style="fill:#007b6c;fill-opacity:1;fill-rule:evenodd;stroke:none"
                 id="path248" /></g></g><g
             id="g250"><g
               id="g252"
               transform="translate(79.83306,20.39324)"><path
                 d="M 4.1298,-1.129 4.1298,0 0,0 l 0,-1.129 4.1298,0 z"
                 style="fill:#007b6c;fill-opacity:1;fill-rule:nonzero;stroke:none"
                 id="path254" /></g></g><g
             id="g256"><g
               id="g258"
               transform="translate(85.23926,27.44024)"><path
                 d="m 4.5352,-10.873 -1.4502,0 0,10.485 1.4502,0 0,0.388 L 0,0 l 0,-0.388 1.4502,0 0,-10.485 -1.4502,0 0,-0.388 4.5352,0 0,0.388 z"
                 style="fill:#007b6c;fill-opacity:1;fill-rule:nonzero;stroke:none"
                 id="path260" /></g></g><g
             id="g262"><g
               id="g264"
               transform="translate(90.79786,23.02324)"><path
                 d="m 0.9277,-6.456 -0.9277,0 0,-0.388 3.1523,0 0,0.388 -0.9101,0 0,3.134 c 0,1.265 0.8769,2.832 2.0224,2.832 0.6748,0 1.0625,-0.184 1.0625,-1.416 l 0,-4.55 -0.8769,0 0,-0.388 3.1025,0 0,0.388 -0.9111,0 0,4.77 C 6.6416,-0.135 5.2432,0 4.6357,0 3.4053,0 2.748,-0.725 2.2764,-1.788 l -0.0342,0 0,1.788 C 1.9385,-0.068 1.6182,-0.119 1.2978,-0.135 0.9951,-0.169 0.6748,-0.169 0.3545,-0.169 l -0.3545,0 0,-0.388 0.9277,0 0,-5.899 z"
                 style="fill:#007b6c;fill-opacity:1;fill-rule:nonzero;stroke:none"
                 id="path266" /></g></g><g
             id="g268"><g
               id="g270"
               transform="translate(99.46386,23.02324)"><path
                 d="M 4.1468,-0.169 3.8438,-0.624 C 3.3218,-0.203 2.7988,0 2.2758,0 0.4388,0 0,-1.366 0,-2.074 0,-3.54 0.9778,-3.692 2.0908,-3.961 c 1.398,-0.355 2.326,-0.659 2.326,-1.316 0,-0.877 -0.877,-1.449 -1.636,-1.449 -1.247,0 -2.073,0.893 -2.393,2.106 l -0.3878,0 0,-2.224 0.3708,0 0.371,0.606 c 0.489,-0.539 1.231,-0.826 1.939,-0.826 1.331,0 2.427,0.859 2.427,2.31 0,1.062 -0.455,1.652 -1.753,1.922 -2.579,0.522 -2.714,0.775 -2.714,1.264 0,0.202 0.202,1.264 1.585,1.231 1.011,-0.051 1.584,-0.743 1.837,-1.72 l 0.371,0 0,1.888 -0.287,0 z"
                 style="fill:#007b6c;fill-opacity:1;fill-rule:nonzero;stroke:none"
                 id="path272" /></g></g><g
             id="g274"><g
               id="g276"
               transform="translate(105.59766,24.99524)"><path
                 d="m 0,-2.529 0.961,0 0,-5.04 c 0,-0.81 0.135,-1.467 1.349,-1.467 0.674,0 1.501,0.388 1.82,1.028 l -0.27,0.186 c -0.269,-0.32 -0.506,-0.624 -0.944,-0.624 -0.64,0 -0.64,0.455 -0.64,0.759 l 0,5.158 1.484,0 0,0.388 -1.484,0 0,2.141 C 1.854,-0.067 1.433,-0.067 0.995,-0.067 l 0,-2.074 -0.995,0 0,-0.388 z"
                 style="fill:#007b6c;fill-opacity:1;fill-rule:nonzero;stroke:none"
                 id="path278" /></g></g><g
             id="g280"><g
               id="g282"
               transform="translate(110.51766,27.30524)"><path
                 d="m 3.439,-11.126 0,0.388 -0.995,0 0,6.456 C 1.838,-4.434 1.181,-4.451 0.557,-4.451 l -0.557,0 0,-0.388 1.13,0 0,-5.899 -1.13,0 0,-0.388 3.439,0 z M 0.961,-0.81 c 0,-0.489 0.32,-0.893 0.809,-0.893 0.49,0 0.86,0.371 0.86,0.893 C 2.63,-0.371 2.175,0 1.77,0 1.349,0 0.961,-0.371 0.961,-0.81 z"
                 style="fill:#007b6c;fill-opacity:1;fill-rule:evenodd;stroke:none"
                 id="path284" /></g></g><g
             id="g286"><g
               id="g288"
               transform="translate(114.96566,24.99524)"><path
                 d="m 0,-2.529 0.961,0 0,-5.04 c 0,-0.81 0.135,-1.467 1.349,-1.467 0.675,0 1.501,0.388 1.821,1.028 l -0.27,0.186 c -0.27,-0.32 -0.506,-0.624 -0.945,-0.624 -0.639,0 -0.639,0.455 -0.639,0.759 l 0,5.158 1.483,0 0,0.388 -1.483,0 0,2.141 C 1.855,-0.067 1.433,-0.067 0.995,-0.067 l 0,-2.074 -0.995,0 0,-0.388 z"
                 style="fill:#007b6c;fill-opacity:1;fill-rule:nonzero;stroke:none"
                 id="path290" /></g></g><g
             id="g292"><g
               id="g294"
               transform="translate(119.70166,23.02324)"><path
                 d="m 7.568,-6.456 -0.961,0 0,6.456 C 6,-0.152 5.343,-0.169 4.719,-0.169 l -0.387,0 0,-0.388 0.96,0 0,-3.775 c 0,-1.214 -0.842,-2.209 -2.04,-2.209 -0.505,0 -1.028,0.219 -1.028,1.248 L 2.224,0 C 1.618,-0.152 0.96,-0.169 0.336,-0.169 l -0.336,0 0,-0.388 0.91,0 0,-4.889 c 0,-0.808 0.337,-1.635 1.989,-1.635 1.096,0 2.006,0.557 2.444,1.484 l 0.033,0 0,-1.365 c 0.608,0.067 1.231,0.118 1.838,0.118 l 0.354,0 0,0.388 z"
                 style="fill:#007b6c;fill-opacity:1;fill-rule:nonzero;stroke:none"
                 id="path296" /></g></g><g
             id="g298"><g
               id="g300"
               transform="translate(128.07966,24.99524)"><path
                 d="m 0,-2.529 0.961,0 0,-5.04 c 0,-0.81 0.135,-1.467 1.349,-1.467 0.675,0 1.5,0.388 1.82,1.028 l -0.269,0.186 c -0.27,-0.32 -0.506,-0.624 -0.945,-0.624 -0.64,0 -0.64,0.455 -0.64,0.759 l 0,5.158 1.483,0 0,0.388 -1.483,0 0,2.141 C 1.855,-0.067 1.433,-0.067 0.995,-0.067 l 0,-2.074 -0.995,0 0,-0.388 z"
                 style="fill:#007b6c;fill-opacity:1;fill-rule:nonzero;stroke:none"
                 id="path302" /></g></g><g
             id="g304"><g
               id="g306"
               transform="translate(136.77666,27.77624)"><path
                 d="m 2.613,-4.922 0,1.905 c 0,1.685 0.522,2.664 1.332,2.664 0.118,0 0.404,-0.018 0.404,-0.102 0,-0.219 -0.134,-0.236 -0.134,-0.421 0,-0.456 0.236,-0.776 0.691,-0.776 0.286,0 0.623,0.22 0.623,0.557 C 5.529,-0.303 4.771,0 4.113,0 2.495,0 1.299,-1.213 1.299,-4.096 l 0,-0.826 -1.299,0 0,-0.388 1.299,0 0,-5.899 -1.299,0 0,-0.388 3.978,0 0,0.388 -1.365,0 0,5.899 1.365,0 0,0.388 -1.365,0 z"
                 style="fill:#007b6c;fill-opacity:1;fill-rule:nonzero;stroke:none"
                 id="path308" /></g></g><g
             id="g310"><g
               id="g312"
               transform="translate(141.71366,25.45024)"><path
                 d="m 2.208,-1.585 c 0.422,0 0.793,0.337 0.793,0.776 C 3.001,-0.387 2.647,0 2.208,0 1.753,0 1.433,-0.371 1.433,-0.809 c 0,-0.439 0.338,-0.776 0.775,-0.776 z m 3.287,0 c 0.422,0 0.793,0.337 0.793,0.776 C 6.288,-0.387 5.934,0 5.495,0 5.04,0 4.72,-0.371 4.72,-0.809 c 0,-0.439 0.338,-0.776 0.775,-0.776 z m 2.075,-7.298 -0.961,0 0,6.456 C 6.001,-2.579 5.344,-2.596 4.72,-2.596 l -0.388,0 0,-0.388 0.961,0 0,-3.775 c 0,-1.214 -0.843,-2.209 -2.039,-2.209 -0.506,0 -1.028,0.219 -1.028,1.248 l 0,5.293 C 1.618,-2.579 0.961,-2.596 0.337,-2.596 l -0.337,0 0,-0.388 0.91,0 0,-4.889 c 0,-0.808 0.337,-1.635 1.99,-1.635 1.095,0 2.005,0.557 2.444,1.484 l 0.034,0 0,-1.365 c 0.607,0.067 1.231,0.118 1.837,0.118 l 0.355,0 0,0.388 z"
                 style="fill:#007b6c;fill-opacity:1;fill-rule:evenodd;stroke:none"
                 id="path314" /></g></g><g
             id="g316"><g
               id="g318"
               transform="translate(150.14366,23.02324)"><path
                 d="M 2.411,0 C 1.804,-0.152 1.146,-0.169 0.522,-0.169 l -0.522,0 0,-0.388 1.146,0 0,-5.899 -1.146,0 0,-0.388 3.76,0 0,0.388 -1.298,0 0,3.202 c 0,0.674 0.184,1.332 0.421,1.821 0.371,0.759 0.944,0.994 0.961,0.994 0.05,0 0.151,0 0.151,-0.101 0,-0.067 -0.067,-0.219 -0.067,-0.354 0,-0.337 0.354,-0.674 0.657,-0.674 0.354,0 0.793,0.202 0.793,0.624 C 5.378,-0.304 4.923,0 4.35,0 3.422,0 2.748,-0.827 2.444,-1.585 l -0.033,0 0,1.585 z"
                 style="fill:#007b6c;fill-opacity:1;fill-rule:nonzero;stroke:none"
                 id="path320" /></g></g><g
             id="g322"><g
               id="g324"
               transform="translate(160.03566,27.44024)"><path
                 d="m 0.117,-0.388 1.332,0 0,-10.485 -1.449,0 0,-0.388 4.584,0 0,0.388 -1.5,0 0,4.686 0.809,0 c 3.54,0 4.805,1.804 4.805,3.186 C 8.698,-1.518 7.72,0 4.601,0 l -4.484,0 0,-0.388 z m 2.967,0 0.472,0 c 2.276,0 3.355,-0.186 3.355,-2.546 0,-1.871 -0.506,-2.865 -3.253,-2.865 l -0.574,0 0,5.411 z"
                 style="fill:#007b6c;fill-opacity:1;fill-rule:evenodd;stroke:none"
                 id="path326" /></g></g><g
             id="g328"><g
               id="g330"
               transform="translate(169.38866,27.94524)"><path
                 d="m 0.928,-11.378 -0.928,0 0,-0.388 3.152,0 0,0.388 -0.91,0 0,3.134 c 0,1.265 0.877,2.832 2.024,2.832 0.673,0 1.061,-0.184 1.061,-1.416 l 0,-4.55 -0.876,0 0,-0.388 3.102,0 0,0.388 -0.91,0 0,4.77 c 0,1.551 -1.4,1.686 -2.007,1.686 -1.231,0 -1.888,-0.725 -2.36,-1.788 l -0.034,0 0,6.71 C 1.636,-0.118 0.979,-0.152 0.355,-0.152 l -0.355,0 0,-0.388 0.928,0 0,-10.838 z"
                 style="fill:#007b6c;fill-opacity:1;fill-rule:nonzero;stroke:none"
                 id="path332" /></g></g><g
             id="g334"><g
               id="g336"
               transform="translate(177.61666,22.85424)"><path
                 d="m 6.945,-0.388 0,0.388 -2.394,0 0,-0.388 1.079,0 -1.601,-4.526 -1.871,4.526 1.079,0 L 3.237,0 0,0 l 0,-0.388 0.793,0 2.579,-6.276 C 2.984,-7.842 2.782,-8.296 2.647,-8.616 2.427,-9.204 2.259,-9.642 2.006,-9.642 c -0.185,0 -0.202,0.623 -0.877,0.623 -0.371,0 -0.691,-0.269 -0.691,-0.725 0,-0.404 0.455,-0.742 0.81,-0.742 1.079,0 1.567,1.079 2.157,2.696 l 2.697,7.402 0.843,0 z"
                 style="fill:#007b6c;fill-opacity:1;fill-rule:nonzero;stroke:none"
                 id="path338" /></g></g><g
             id="g340"><g
               id="g342"
               transform="translate(185.62166,23.02324)"><path
                 d="M 4.148,-0.169 3.844,-0.624 C 3.322,-0.203 2.799,0 2.276,0 0.439,0 0,-1.366 0,-2.074 0,-3.54 0.978,-3.692 2.091,-3.961 3.49,-4.316 4.417,-4.62 4.417,-5.277 c 0,-0.877 -0.877,-1.449 -1.635,-1.449 -1.247,0 -2.074,0.893 -2.394,2.106 l -0.388,0 0,-2.224 0.372,0 0.371,0.606 c 0.488,-0.539 1.23,-0.826 1.938,-0.826 1.332,0 2.427,0.859 2.427,2.31 0,1.062 -0.454,1.652 -1.753,1.922 -2.579,0.522 -2.714,0.775 -2.714,1.264 0,0.202 0.202,1.264 1.585,1.231 1.012,-0.051 1.584,-0.743 1.837,-1.72 l 0.371,0 0,1.888 -0.286,0 z"
                 style="fill:#007b6c;fill-opacity:1;fill-rule:nonzero;stroke:none"
                 id="path344" /></g></g><g
             id="g346"><g
               id="g348"
               transform="translate(191.99266,27.30524)"><path
                 d="m 3.438,-11.126 0,0.388 -0.994,0 0,6.456 C 1.837,-4.434 1.179,-4.451 0.556,-4.451 l -0.556,0 0,-0.388 1.129,0 0,-5.899 -1.129,0 0,-0.388 3.438,0 z M 0.96,-0.81 c 0,-0.489 0.321,-0.893 0.809,-0.893 0.489,0 0.86,0.371 0.86,0.893 C 2.629,-0.371 2.174,0 1.769,0 1.348,0 0.96,-0.371 0.96,-0.81 z"
                 style="fill:#007b6c;fill-opacity:1;fill-rule:evenodd;stroke:none"
                 id="path350" /></g></g><g
             id="g352"><g
               id="g354"
               transform="translate(196.65966,27.94524)"><path
                 d="m 5.057,-5.479 0,-0.05 -2.848,-2.428 2.814,-3.421 -0.843,0 0,-0.388 3.203,0 0,0.388 -0.708,0 -3.203,3.876 2.327,2.023 1.029,0 0,0.388 -2.765,0 0,-0.388 0.994,0 z m -1.854,-6.287 0,0.388 -1.012,0 0,11.378 C 1.584,-0.118 0.927,-0.152 0.303,-0.152 l -0.303,0 0,-0.388 0.876,0 0,-10.838 -0.876,0 0,-0.388 3.203,0 z"
                 style="fill:#007b6c;fill-opacity:1;fill-rule:evenodd;stroke:none"
                 id="path356" /></g></g><g
             id="g358"><g
               id="g360"
               transform="translate(0,35.29524)"><path
                 d="m 0,0 204.089,0 0,-1.053 L 0,-1.053 0,0 z"
                 style="fill:#007b6c;fill-opacity:1;fill-rule:nonzero;stroke:none"
                 id="path362" /></g></g><g
             id="g364"><g
               id="g366"
               transform="translate(47.35256,142.24252)"><path
                 d="m 86.6881,-17.0235 c -16.972,-10.2851 -32.355,-22.7832 -45.7994,-37.0478 17.0254,11.5723 39.0084,15.2197 59.7203,8.293 1.332,-0.4454 0.664,-2.4434 -0.6689,-1.9981 -17.949,6.002 -36.888,3.8086 -52.4929,-4.749 17.1759,7.0254 38.0129,5.0996 54.0528,-9.1358 1.051,-0.9326 -0.349,-2.5078 -1.399,-1.5751 -30.7239,27.2666 -79.7963,7.4541 -82.6245,-33.7832 -0.0966,-1.4014 -2.1982,-1.2569 -2.1025,0.1445 0.3643,5.3056 1.4619,10.2715 3.168,14.8457 -2.3809,-3.5342 -4.6602,-7.1387 -6.834,-10.8096 -0.7158,-1.209 -2.5283,-0.1348 -1.8125,1.0733 3.0127,5.0888 6.2266,10.0507 9.6318,14.8759 -4.2881,-3.4492 -9.0478,-6.4277 -14.2324,-8.8232 -1.2754,-0.5899 -2.1592,1.3232 -0.8838,1.9121 4.794,2.2158 9.2149,4.9463 13.2197,8.0977 -4.8359,-2.4112 -10.2822,-3.8741 -16.1435,-4.1065 -1.4033,-0.0557 -1.4873,2.0498 -0.084,2.1055 23.0977,0.917 39.3955,22 35.5186,44.0683 -0.2432,1.3838 1.832,1.7481 2.0752,0.3643 0.746,-4.2451 0.7851,-8.457 0.2011,-12.5117 4.9707,13.7666 5.4365,29.1601 0.3448,43.76367 -0.4629,1.32617 1.5273,2.01953 1.9892,0.69336 6.2373,-17.88773 4.4033,-36.91803 -3.6943,-52.92673 13.9287,15.0791 29.9792,28.2578 47.7592,39.0312 1.201,0.7275 2.293,-1.0742 1.091,-1.8018 z"
                 style="fill:#007b6c;fill-opacity:1;fill-rule:nonzero;stroke:none"
                 id="path368" /></g></g><g
             id="g370"><g
               id="g372"
               transform="translate(93.65626,63.62334)"><path
                 d="M 2.9053,-7.6923 2.3975,-8.4316 c 0.3339,-0.4746 0.4345,-0.9717 0.5683,-1.4063 0.0615,-0.1845 0.1358,-0.3251 0.1797,-0.3779 l 0.165,0.0039 0.2139,-0.0156 0.3818,-0.042 c 0.1465,-0.0176 1.7549,-0.2549 2.0462,-0.2734 l 1.251,-0.126 c 0.557,-0.0576 1.066,-0.1064 1.148,-0.0986 0.131,0.0117 0.278,-0.0235 0.39,-0.0557 l 0.252,-0.0742 c 0.042,-0.0069 0.154,0.0517 0.258,0.1377 l 0.048,0.2558 c 0.054,0.2139 0.249,0.3926 0.203,0.627 l -0.278,0.8779 c -0.126,0.3867 -0.262,0.8086 -0.274,0.9111 -0.006,0.0538 -0.219,0.5811 -0.458,1.1514 l -0.487,1.1445 -0.845,2.6358 c 0,0 -0.057,0.2764 -0.15,0.541 -0.048,0.1338 -0.101,0.2559 -0.158,0.3399 -0.614,0.0312 -0.751,-0.6124 -1.1893,-0.5342 l -0.1494,0.0371 -0.1202,0.0176 c -0.1289,0 -0.2617,-0.292 -0.3046,-0.3877 C 5.0166,-3.3066 4.5078,-4.4677 4.4355,-4.6855 L 4.2441,-5.1035 3.9102,-5.7802 3.5879,-6.4433 3.4834,-6.6767 3.3828,-6.9345 3.2598,-7.1455 2.9053,-7.6923 z m -2.7227,-3.75 0.1553,0.1777 c 0.1347,0.166 0.123,0.3633 0.0537,0.5557 l -0.124,0.2939 c -0.1358,0.3389 0.0556,1.0537 0.2773,1.3359 l 0.6494,0.8096 c 0.2774,0.3555 0.5352,0.7119 0.6182,0.9014 0.1826,0.4199 1.0957,2.0957 1.2236,2.4297 0.1289,0.3349 0.9229,2.0078 1.0147,2.2099 0.1406,0.3086 0.9033,1.7676 1.2666,1.9824 0.0635,0.0372 0.1455,0.0655 0.2363,0.045 l 0.2529,-0.0508 0.126,-0.042 c 0.1608,0.2012 0.3078,0.3691 0.4798,0.4492 l 0.388,0.2149 c 0.14,0.0712 0.314,0.1298 0.456,0.0273 1.185,-0.8623 0.772,-1.0371 0.997,-2.3887 0.054,-0.3203 0.69,-2.3174 0.859,-2.5869 0.193,-0.3096 1.209,-2.8369 1.302,-3.1328 0.047,-0.1514 0.086,-0.3828 0.123,-0.5947 l 0.054,-0.2754 0.045,-0.1397 0.168,-0.1884 c 0.076,-0.0899 0.147,-0.21 0.147,-0.3838 0,-0.2696 -0.111,-0.7657 -0.273,-0.9561 l -0.113,-0.1455 c 0.457,-0.374 -0.218,-1.0889 -0.588,-1.1875 -0.169,-0.0449 -1.219,0.0195 -2.168,0.0869 l -1.9207,0.1475 c -0.0508,0.0078 -2.7813,0.4267 -2.8926,0.3769 l -0.2178,-0.1445 c -0.0957,-0.0644 -0.2168,-0.1299 -0.3808,-0.1416 l -0.1749,-0.0117 -0.1152,-0.0156 -0.1094,-0.1905 0.0186,-0.1777 c 0.0098,-0.1211 -10e-4,-0.3555 -0.2793,-0.374 l -0.5898,-0.0821 c -0.2022,-0.0205 -0.4981,-0.0371 -0.6504,0.1299 l -0.2305,0.294 C 0.1514,-12.0029 0,-11.8427 0.0859,-11.6132 l 0.0967,0.1709 z"
                 style="fill:#007b6c;fill-opacity:1;fill-rule:nonzero;stroke:none"
                 id="path374" /></g></g><g
             id="g376"><g
               id="g378"
               transform="translate(138.74866,62.21224)"><path
                 d="m 4.152,-4.0986 0.117,0.1338 0.382,0.5078 c 0.054,0.0918 0.385,0.5068 0.623,0.8926 0.237,0.3818 0.256,0.4365 0.383,0.6552 l 0.124,0.1748 C 5.89,-1.6045 6.007,-1.4775 6.086,-1.3262 5.97,-1.3496 5.7,-1.4805 5.561,-1.584 5.507,-1.625 5.4,-1.75 5.273,-1.9101 L 4.942,-2.333 C 4.787,-2.5215 4.577,-2.9307 4.546,-3.0361 L 4.152,-4.0986 z m -1.676,-4.9502 0.206,0.0185 0.296,0.0459 0.127,0.0157 0.111,9e-4 c 0.945,-0.0517 0.822,-0.6006 1.005,-1.4336 0.072,-0.33 0.231,-0.4375 0.277,-0.4375 l 0.272,0.0606 c 0.122,0.0342 0.273,0.0752 0.437,0.0859 0.21,0.0196 0.432,0.0537 0.644,0.0362 l 0.132,0.0068 c 0.162,0.0264 0.442,0.1006 0.478,-0.1514 0.063,-0.4424 -0.464,-0.6992 -0.807,-0.833 L 5.207,-11.7861 C 4.87,-11.8965 4.492,-11.9922 4.254,-12.0127 L 4.12,-12.0381 c -0.323,-0.0703 -0.476,0.1221 -0.615,0.3994 l -0.262,0.5069 c -0.066,0.1299 -0.112,0.2422 -0.152,0.4033 l -0.067,0.3242 c -0.225,0.0205 -0.355,0.0918 -0.585,0.0147 -0.007,-0.083 -0.048,-0.1426 -0.213,-0.3399 l -0.175,-0.2353 -0.116,-0.1953 c -0.068,-0.1182 -0.137,-0.2364 -0.266,-0.3301 -0.237,-0.2793 -0.338,-0.4278 -0.566,-0.5127 -0.521,-0.1963 -1.024,0.1328 -0.739,0.6172 l 0.086,0.122 0.423,1.0284 c 0.22,0.541 0.428,1.0898 0.454,1.2851 0.056,0.4561 0.262,1.1318 0.354,1.3916 l 0.142,0.332 c 0.039,0.0899 0.063,0.1592 0.07,0.2354 l 0.037,0.3223 0.004,0.1171 -0.178,0.1797 c -0.102,0.1045 -0.2,0.2481 -0.149,0.4034 l 0.071,0.1191 0.341,0.3057 -0.25,0.1123 -0.718,0.1757 -0.427,0.2139 -0.263,0.1475 C 0.209,-4.791 0,-4.3037 0.051,-4.1523 c 0.073,0.2226 0.698,0.3789 0.858,0.3339 l 0.689,-0.2285 c 0.585,-0.1904 0.691,-0.2363 1.293,-0.1953 l 0.22,0.5879 c 0.13,0.3438 0.281,0.7324 0.342,0.8447 l 0.219,0.4483 c 0.274,0.5459 0.685,0.9082 1.104,1.3447 l 0.407,0.4219 C 5.527,-0.2666 6.098,0 6.572,0 7.801,0 7.402,-0.9883 7.15,-1.7031 7.053,-1.9766 6.514,-2.5449 6.312,-2.7744 L 6.133,-3.0049 5.721,-3.7148 5.43,-4.1738 5.739,-4.2539 6.194,-4.3457 c 0,0 0.517,0.0391 1.124,0.0557 1.11,0.0302 1.613,-0.0293 2.638,-0.3819 0.202,-0.0693 0.705,-0.2324 0.685,-0.5293 l 0.019,-0.1484 0.044,-0.1709 C 10.845,-6.1914 9.254,-5.9375 8.989,-5.8213 8.72,-5.7041 7.424,-5.543 7.304,-5.5576 7.147,-5.5771 5.4,-5.5957 5.236,-5.5762 L 4.628,-5.5264 4.271,-5.5049 4.154,-5.501 3.848,-5.8057 3.407,-6.3066 C 3.237,-6.5283 2.961,-7.248 2.961,-7.4072 L 2.937,-7.5576 2.882,-7.7451 2.723,-8.206 2.567,-8.6396 2.516,-8.7871 2.476,-9.0488 z"
                 style="fill:#007b6c;fill-opacity:1;fill-rule:nonzero;stroke:none"
                 id="path380" /></g></g><g
             id="g382"><g
               id="g384"
               transform="translate(105.95066,57.45734)"><path
                 d="M 2.668,-2.2588 C 2.538,-2.459 2.442,-2.6426 2.442,-2.6426 L 2.316,-2.8232 C 2.251,-2.9209 2.17,-3.0469 2.117,-3.1601 L 2.055,-3.2988 2.041,-3.3691 c 0.007,-0.2022 0.271,-0.3682 0.442,-0.4102 0.379,-0.0927 0.866,-0.1816 1.177,0.128 l 0.105,0.1347 0.343,0.4883 0.15,0.1953 0.067,0.1494 0.073,0.2881 0.121,0.585 0.133,0.375 c 0.043,0.1621 -0.044,0.2597 -0.213,0.25 L 4.292,-1.2129 4.104,-1.2724 C 3.483,-1.4795 3.027,-1.709 2.668,-2.2588 z m -0.935,0.5596 c 0.339,0.3418 0.731,0.7295 0.911,0.8809 l 0.511,0.4658 c 0.16,0.1377 0.354,0.2832 0.554,0.2832 L 4.633,-0.0078 5.188,0 5.408,-0.0254 C 5.464,-0.0371 5.541,-0.0595 5.594,-0.1133 L 5.745,-0.2695 5.909,-0.4804 C 6.003,-0.626 6.094,-0.833 6.011,-1.041 5.9,-1.3193 5.676,-1.917 5.528,-2.1953 5.388,-2.457 5.384,-2.5176 5.398,-2.6406 L 5.479,-2.7851 C 5.537,-2.8818 5.57,-3.0107 5.464,-3.1621 L 5.346,-3.3076 C 5.219,-3.4404 5.086,-3.5693 4.987,-3.7246 4.825,-3.9775 4.051,-5.8916 3.943,-6.289 3.888,-6.4912 3.17,-8.7959 2.967,-9.3105 2.862,-9.5801 2.593,-10.0547 2.345,-10.4883 l -0.344,-0.6074 -0.19,-0.375 -0.17,-0.4355 c -0.049,-0.1299 -0.077,-0.2383 -0.077,-0.3399 0,-0.708 -1.017,-0.9004 -1.342,-0.249 -0.153,0.3076 -0.222,0.6748 -0.001,0.9473 l 0.299,0.3467 c 0.106,0.1279 0.216,0.2724 0.311,0.4384 0.199,0.3496 1.003,2.0742 1.129,2.4014 0.133,0.3418 0.894,2.3047 0.964,2.6719 l 0.147,0.6777 C 2.023,-4.9326 1.505,-5.0342 0.972,-3.9297 0.833,-3.6396 0.8,-3.3896 0.816,-3.1787 l 0.049,0.2764 0.063,0.2012 c 0.084,0.2519 0.157,0.3418 0.157,0.3418 l 0.648,0.6601 z"
                 style="fill:#007b6c;fill-opacity:1;fill-rule:nonzero;stroke:none"
                 id="path386" /></g></g><g
             id="g388"><g
               id="g390"
               transform="translate(70.63866,63.24644)"><path
                 d="M 5.3028,-3.1016 C 5.336,-3.1445 5.2735,-3.2119 5.2569,-3.2402 L 5.0947,-3.5 c -0.9619,-1.4873 0,0 -0.9619,-1.4873 L 3.9736,-5.2412 3.8906,-5.3399 C 3.9238,-5.3838 3.8565,-5.4697 3.8447,-5.4932 L 3.6738,-5.8154 C 2.9346,-7.1797 3.3848,-6.3486 2.6348,-7.7315 L 2.3623,-8.2549 2.1592,-8.6279 1.834,-9.2022 C 1.7246,-9.4014 1.6231,-9.5996 1.5576,-9.7608 L 1.4805,-9.961 c 0.1592,-0.0585 0.249,-0.0312 0.3789,-0.0312 0.3476,0 0.7666,0.0947 1.0986,0.1455 0.1201,0.0147 0.2315,-0.0293 0.3213,-0.0791 l 0.2656,-0.1836 0.2354,-0.1689 c 0.0752,-0.044 0.1289,-0.0616 0.166,-0.0616 1.0107,0 1.8096,-0.1357 2.7119,-0.6269 0.1446,-0.0781 1.0488,-0.3125 1.1553,0.0029 0.0742,0.2188 0.0225,0.5762 0.0225,0.8057 0,0.2744 -0.1827,1.7685 -0.2012,2.0605 -0.0176,0.294 -0.1826,2.3379 -0.1826,2.5401 0,0.2011 -0.2432,1.8535 -0.2432,2.1279 0,0.1104 -0.0996,0.4824 -0.2227,0.8945 l -0.2841,0.9395 -0.1621,0.6474 -0.0684,0.3584 c -0.0205,0.1397 -0.0469,0.3106 0.0586,0.4239 l 0.1142,0.0781 C 6.8467,0 7.169,-0.0449 7.3779,-0.0742 L 7.543,-0.1524 7.6524,-0.2803 c 0.1582,-0.2402 0.1992,-0.5234 0.288,-0.791 l 0.2715,-1.1289 0.2647,-1.0615 c 0,0 0.0146,-0.0117 0.0303,-0.0918 l 0.0166,-0.1016 0.039,-0.3115 0.0918,-0.8936 0.1172,-1.2715 c 0,0 0.1826,-3.2753 0.2197,-3.5859 l 0.2041,-1.0937 0.1094,-0.667 0.0254,-0.2618 c 0.0195,-0.457 -0.419,-0.75 -0.8027,-0.8847 -0.1934,-0.0684 -0.6006,-0.043 -0.959,-0.0078 l -0.9229,0.1093 c -0.7763,0.0821 -1.1523,0.5264 -1.6601,0.5762 l -0.2471,0 -0.2988,-0.0127 c -0.5508,-0.0058 -1.2178,0.2705 -1.7315,0.4512 -0.1123,0.04 -0.3652,0.0146 -0.6679,-0.0381 l -0.4073,-0.0752 -0.3086,-0.041 c -0.2588,0 -0.9707,0.0977 -1.2031,0.8398 -0.1211,0.3877 0.0537,0.8047 0.2432,1.1436 l 0.3017,0.4853 c 0.0967,0.1485 0.1719,0.2686 0.2119,0.3604 0.1836,0.4219 1.7491,3.2559 2.0801,3.8486 0.3301,0.5918 2.6319,4.0733 2.6319,4.0733 0.373,0.3564 0.622,0.3467 0.7724,-0.0098 l 0.124,-0.3594 C 6.5117,-1.1445 6.5059,-1.208 6.4951,-1.2549 L 6.4424,-1.4014 6.2695,-1.6914 C 6.1416,-1.876 6.0098,-2.0303 6.0098,-2.0303 l -0.335,-0.5088 -0.2363,-0.372 -0.0986,-0.17 -0.0371,-0.0205 z"
                 style="fill:#007b6c;fill-opacity:1;fill-rule:nonzero;stroke:none"
                 id="path392" /></g></g><g
             id="g394"><g
               id="g396"
               transform="translate(127.86966,54.75134)"><path
                 d="M 3.843,-1.3086 C 3.811,-1.4033 3.802,-1.4287 3.76,-1.5518 3.738,-1.6104 3.707,-1.6787 3.662,-1.7315 L 3.595,-1.8213 3.502,-1.9366 C 3.233,-2.2061 2.776,-1.9668 2.661,-1.6485 2.6,-1.4825 2.504,-1.1514 2.559,-0.9639 l 0.043,0.1035 0.226,0.2588 c 0.357,0.3711 0.551,0.4316 1.045,0.5322 L 4.27,0 4.407,-0.0655 4.624,-0.1992 C 4.782,-0.3116 4.982,-0.4922 5.051,-0.7344 5.165,-1.1328 5.176,-1.916 5.021,-2.2041 4.838,-2.543 4.397,-3.3076 4.064,-3.5147 L 3.984,-3.5635 3.92,-3.6075 C 3.86,-3.6543 3.807,-3.7159 3.807,-3.8916 c 0,-0.21 0.035,-0.2881 0.06,-0.3203 l 0.135,-0.0723 0.112,-0.0078 0.216,0.0176 0.424,0.0703 0.132,0.0449 0.175,0.0664 c 0.16,0.0459 0.36,-0.0039 0.343,-0.2842 l 0.01,-0.1523 0.02,-0.1504 C 5.439,-4.8428 5.34,-4.9385 5.171,-5.0147 4.793,-5.1856 4.498,-5.4512 4.055,-5.4717 c -0.411,-0.0186 -0.768,0.0273 -1,0.2871 -0.147,0.166 -0.241,0.3047 -0.306,0.3633 L 2.58,-4.8907 2.173,-5.0733 C 1.584,-5.3184 1.775,-5.2403 1.336,-5.4219 L 1.227,-5.4629 1.139,-5.4883 0.965,-5.628 C 0.855,-5.7012 0.652,-5.7852 0.484,-5.583 L 0.36,-5.4375 0.257,-5.294 c -0.257,0.4678 0.455,0.6514 0.727,0.8145 0.386,0.2314 0.857,0.3701 1.211,0.6494 0.254,0.1992 0.598,0.4521 0.834,0.6689 0.65,0.5547 0.733,0.5596 0.98,1.4551 l 0.02,0.1123 c 0.006,0.0752 -0.008,0.1231 -0.035,0.1524 l -0.151,0.1328 z"
                 style="fill:#007b6c;fill-opacity:1;fill-rule:nonzero;stroke:none"
                 id="path398" /></g></g><g
             id="g400"><g
               id="g402"
               transform="translate(113.73966,60.31474)"><path
                 d="M 8.017,-4.5175 7.915,-4.5654 7.736,-4.5615 7.227,-4.5283 6.252,-4.4287 c -0.384,0.0577 -1.667,0.4854 -2.141,0.667 -0.843,0.3242 -3.119,1.8008 -3.662,2.585 L 0.326,-1.0029 0.212,-0.8232 C 0,-0.4062 0.567,0 0.945,-0.0683 1.198,-0.1152 1.597,-0.4414 1.747,-0.6103 2.17,-1.0849 4.553,-2.5244 5.108,-2.6953 l 0.839,-0.2851 c 1.204,-0.3916 2.078,-0.3623 3.331,-0.4971 0.512,-0.0547 1.191,-0.0908 1.411,-0.1094 l 0.21,-0.0117 0.27,-0.0371 c 0.157,-0.0371 0.417,-0.1484 0.347,-0.4434 L 11.493,-4.2519 11.481,-4.416 C 11.44,-4.6777 11.163,-4.7919 10.935,-4.8349 10.708,-4.8642 10.774,-4.8564 10.626,-4.874 10.927,-5.3349 10.406,-5.7724 10.06,-5.8417 9.376,-5.9785 8.726,-6.2988 8.078,-6.5507 7.754,-6.6767 7.476,-6.7919 7.387,-6.8584 7.166,-7.0244 5.784,-7.8955 5.507,-8.0615 5.094,-8.3349 4.645,-8.6757 4.185,-8.8759 3.765,-9.0595 3.236,-9.25 2.977,-9.29 2.892,-9.3027 2.844,-9.332 2.791,-9.3789 L 2.69,-9.4726 2.547,-9.5927 2.427,-9.6884 2.296,-9.7802 C 2.184,-9.8398 2.06,-9.8505 1.885,-9.8203 l -0.226,0.0479 c -0.544,0.1514 -0.371,0.6308 -0.09,0.9541 l 0.109,0.1133 1.434,0.8779 c 0.201,0.0117 0.672,0.0547 0.831,0.1475 0.219,0.1279 1.339,0.8818 1.668,1.083 0.809,0.4951 2.086,1.0869 3.004,1.3828 0.042,0.0137 0.063,0.0234 0.11,0.083 l 0.247,0.3672 -0.367,0.1064 -0.4,0.0821 -0.139,0.0185 -0.049,0.0391 z"
                 style="fill:#007b6c;fill-opacity:1;fill-rule:nonzero;stroke:none"
                 id="path404" /></g></g><g
             id="g406"><g
               id="g408"
               transform="translate(115.76166,53.42714)"><path
                 d="m 4.93,-1.6514 c 0.518,0.2939 1.621,0.7529 1.879,0.8818 l 0.165,0.1006 0.182,0.126 c 0.274,0.1816 1.16,0.4668 1.496,0.5 C 9.083,0 9.575,-0.4825 9.247,-0.9004 8.683,-1.6192 7.928,-1.2051 7.116,-1.7041 6.877,-1.8516 4.588,-3.086 4.386,-3.1778 4.185,-3.2686 2.226,-4.3155 2.152,-4.3516 L 1.886,-4.4629 C 1.771,-4.5176 1.68,-4.5772 1.64,-4.6338 L 1.55,-4.7852 1.422,-4.9825 C 1.084,-5.4063 0.214,-5.2383 0.076,-4.7344 0,-4.4551 0.225,-4.002 0.514,-3.9122 l 0.062,0.0137 c 0,0 3.837,1.9541 4.354,2.2471 z"
                 style="fill:#007b6c;fill-opacity:1;fill-rule:nonzero;stroke:none"
                 id="path410" /></g></g><g
             id="g412"><g
               id="g414"
               transform="translate(81.31646,58.31874)"><path
                 d="M 1.4296,-4.8311 C 1.2666,-4.96 1.374,-4.875 1.1425,-5.0567 0.996,-5.1612 0.7822,-5.2852 0.5996,-5.1856 0.3164,-5.0313 0,-4.3223 0.3828,-4.2227 l 0.9677,0.6914 0.251,0.4453 c 0.1406,0.2403 0.3067,0.5166 0.3809,0.6113 l 0.4306,0.6543 c 0.1836,0.2842 0.3848,0.5909 0.4776,0.6944 l 0.0967,0.1406 0.1025,0.1875 0.1133,0.1924 c 0.04,0.0586 0.0908,0.1201 0.1543,0.1621 L 3.6367,-0.25 C 4.0742,0 4.538,-0.3965 4.3652,-0.8721 L 4.1044,-1.4356 3.9687,-1.752 3.916,-1.9385 c 0,-0.249 -0.2842,-1.249 -0.3369,-1.4063 l -0.1592,-0.5996 0.9707,0.669 c 0,0 0.1416,0.1328 0.3525,0.2773 0.2022,0.1387 0.4873,0.3008 0.7578,0.3232 l 0.4365,0.0567 C 6.7363,-2.5313 7.2568,-2.8204 7.3076,-3.7481 7.3447,-4.419 7.3769,-4.9434 7.3837,-5.3213 L 7.372,-5.793 C 7.3603,-5.9073 7.3378,-6.0254 7.2773,-6.1036 7.0283,-6.4795 6.8251,-6.7618 6.291,-6.7276 5.8173,-6.6973 5.206,-6.71 4.8515,-6.3331 4.2294,-5.6719 4.7128,-5.2442 5.4023,-5.2754 l 0.2822,-0.0186 0.2119,0 c 0.166,0.0215 0.2578,0.1045 0.2744,0.4649 0.0108,0.2265 0.0323,0.7539 -0.0683,0.9648 C 5.8671,-3.8799 5.0332,-4.1954 4.7109,-4.4102 4.4003,-4.6172 3.5283,-5.6241 3.414,-5.9512 3.2861,-6.3174 2.7001,-7.8174 2.5908,-8.1465 2.4804,-8.4766 2.0351,-10.0977 1.8691,-10.5196 c -0.1074,-0.2773 -0.6875,-1.2549 -1.1367,-1.0303 -0.3741,0.1866 -0.5117,0.7139 -0.1465,1.7901 0.3633,1.0732 0.8916,2.8428 0.9101,2.9336 0.0938,0.3906 0.3584,1.3096 0.4014,1.7334 L 1.997,-4.4502 1.4296,-4.8311 z"
                 style="fill:#007b6c;fill-opacity:1;fill-rule:nonzero;stroke:none"
                 id="path416" /></g></g><g
             id="g418"><g
               id="g420"
               transform="translate(90.58596,54.56384)"><path
                 d="M 0.3564,-0.1446 0.4619,-0.0528 0.539,-0.0157 0.6416,0 0.7617,-0.0235 0.8535,-0.0703 1.0888,-0.1973 C 1.5654,-0.417 1.4853,-1.085 1.0303,-1.2393 L 0.8105,-1.291 C 0.416,-1.3457 0,-1.3037 0,-0.7705 c 0,0.1943 0.124,0.372 0.2187,0.4824 l 0.1377,0.1435 z"
                 style="fill:#007b6c;fill-opacity:1;fill-rule:nonzero;stroke:none"
                 id="path422" /></g></g><g
             id="g424"><g
               id="g426"
               transform="translate(128.61166,57.02964)"><path
                 d="M 0.471,-0.1797 C 0.59,-0.0908 0.752,0 0.752,0 l 0.656,-0.1387 0.289,-0.0742 c 0.332,-0.0937 1.745,-0.2578 2.038,-0.2354 0.524,0.0352 1.717,0.0791 2.274,0.251 l 0.29,0.0928 c 0.097,0.0264 0.194,0.042 0.326,0.042 L 6.746,-0.0811 6.851,-0.1416 6.916,-0.2363 6.939,-0.332 6.926,-0.4951 6.895,-0.6172 C 6.852,-0.7676 6.638,-1.1563 6.491,-1.3037 L 6.387,-1.417 6.246,-1.5625 C 6.062,-1.7275 5.853,-1.7891 5.65,-1.6328 L 5.551,-1.5498 5.469,-1.5508 5.036,-1.6338 4.823,-1.6719 4.64,-1.6787 4.585,-1.6777 4.465,-1.6807 C 4.174,-1.6943 3.799,-1.7529 3.515,-1.6963 3.44,-1.6807 3.087,-1.667 2.705,-1.6553 L 1.859,-1.625 C 1.66,-1.6055 0.716,-1.3018 0.561,-1.1914 0.28,-0.9902 0,-0.6533 0.297,-0.333 l 0.174,0.1533 z"
                 style="fill:#007b6c;fill-opacity:1;fill-rule:nonzero;stroke:none"
                 id="path428" /></g></g><g
             id="g430"><g
               id="g432"
               transform="translate(131.42566,61.64584)"><path
                 d="M 1.959,-0.0654 2.033,-0.0352 2.113,0 2.346,-0.0605 C 2.817,-0.2031 2.922,-0.4717 2.835,-0.9492 2.815,-1.0605 2.788,-1.1445 2.748,-1.2324 L 2.597,-1.5088 C 2.512,-1.6562 2.306,-2.6631 2.245,-2.8721 2.192,-3.0576 2.081,-3.2217 1.972,-3.3594 L 1.668,-3.7119 1.358,-4.1445 C 1.128,-4.4727 1.008,-4.7607 0.538,-4.6328 0.379,-4.5889 0.216,-4.5088 0.11,-4.4346 L 0.047,-4.3721 0.01,-4.292 0,-4.2129 0.01,-4.1416 c 0.018,0.084 0.066,0.1709 0.111,0.2422 l 0.146,0.2129 0.09,0.1445 c 0.079,0.1856 0.334,0.6309 0.445,0.8399 0.103,0.1943 0.391,0.9804 0.468,1.1894 l 0.035,0.1856 c 0.049,0.4902 0.01,0.0937 0.059,0.5986 l 0.05,0.2558 c 0.059,0.1758 0.241,0.2764 0.362,0.3321 l 0.183,0.0752 z"
                 style="fill:#007b6c;fill-opacity:1;fill-rule:nonzero;stroke:none"
                 id="path434" /></g></g></g></g></g></g></svg>