<?xml version="1.0" encoding="UTF-8" standalone="no"?>
<svg
   xmlns:dc="http://purl.org/dc/elements/1.1/"
   xmlns:cc="http://creativecommons.org/ns#"
   xmlns:rdf="http://www.w3.org/1999/02/22-rdf-syntax-ns#"
   xmlns:svg="http://www.w3.org/2000/svg"
   xmlns="http://www.w3.org/2000/svg"
   viewBox="0 0 708.66125 496.70999"
   height="496.70999"
   width="708.66125"
   xml:space="preserve"
   version="1.1"
   id="svg2"><metadata
     id="metadata8"><rdf:RDF><cc:Work
         rdf:about=""><dc:format>image/svg+xml</dc:format><dc:type
           rdf:resource="http://purl.org/dc/dcmitype/StillImage" /><dc:title></dc:title></cc:Work></rdf:RDF></metadata><defs
     id="defs6"><clipPath
       id="clipPath16"
       clipPathUnits="userSpaceOnUse"><path
         id="path18"
         d="m 0,397.368 566.929,0 L 566.929,0 0,0 0,397.368 Z" /></clipPath><clipPath
       id="clipPath88"
       clipPathUnits="userSpaceOnUse"><path
         id="path90"
         d="m 11.6426,386.83 544.4784,0 0,-187.901 -544.4784,0 0,187.901 z" /></clipPath><clipPath
       id="clipPath116"
       clipPathUnits="userSpaceOnUse"><path
         id="path118"
         d="m 190.866,234.035 185.197,0 0,-128.898 -185.197,0 0,128.898 z" /></clipPath><clipPath
       id="clipPath132"
       clipPathUnits="userSpaceOnUse"><path
         id="path134"
         d="m 227.924,233.099 111.082,0 0,-89.42 -111.082,0 0,89.42 z" /></clipPath><clipPath
       id="clipPath152"
       clipPathUnits="userSpaceOnUse"><path
         id="path154"
         d="m 193.762,290.651 179.406,0 0,-70.156 -179.406,0 0,70.156 z" /></clipPath><clipPath
       id="clipPath228"
       clipPathUnits="userSpaceOnUse"><path
         id="path230"
         d="m 0,397.368 566.929,0 L 566.929,0 0,0 0,397.368 Z" /></clipPath></defs><g
     transform="matrix(1.25,0,0,-1.25,0,496.71)"
     id="g10"><g
       id="g12"><g
         clip-path="url(#clipPath16)"
         id="g14"><g
           transform="translate(442.9275,232.5166)"
           id="g20"><path
             id="path22"
             style="fill:none;stroke:#dcdbdb;stroke-width:5;stroke-linecap:butt;stroke-linejoin:miter;stroke-miterlimit:10;stroke-dasharray:none;stroke-opacity:1"
             d="m 0,0 c 18.542,-88.069 -37.82,-174.494 -125.889,-193.037 -88.069,-18.542 -174.495,37.821 -193.037,125.89 -18.542,88.069 37.82,174.494 125.889,193.036 C -104.968,144.431 -18.542,88.069 0,0 Z" /></g><g
           transform="translate(124.0016,165.3692)"
           id="g24"><path
             id="path26"
             style="fill:none;stroke:#dcdbdb;stroke-width:5;stroke-linecap:butt;stroke-linejoin:miter;stroke-miterlimit:10;stroke-dasharray:none;stroke-opacity:1"
             d="m 0,0 c -18.542,88.069 37.82,174.494 125.889,193.037 88.069,18.542 174.495,-37.821 193.037,-125.89" /></g><g
           transform="translate(242.6481,41.0144)"
           id="g28"><path
             id="path30"
             style="fill:none;stroke:#dcdbdb;stroke-width:5;stroke-linecap:butt;stroke-linejoin:miter;stroke-miterlimit:10;stroke-dasharray:none;stroke-opacity:1"
             d="M 0,0 C 39.173,99.138 54.06,208.992 38.924,320.75" /></g><g
           transform="translate(444.1766,175.0327)"
           id="g32"><path
             id="path34"
             style="fill:none;stroke:#dcdbdb;stroke-width:5;stroke-linecap:butt;stroke-linejoin:miter;stroke-miterlimit:10;stroke-dasharray:none;stroke-opacity:1"
             d="m 0,0 c -34.353,29.635 -81.645,43.475 -129.468,33.407 -70.689,-14.883 -119.261,-77.094 -119.58,-146.518" /></g><g
           transform="translate(405.7379,91.2031)"
           id="g36"><path
             id="path38"
             style="fill:none;stroke:#dcdbdb;stroke-width:5;stroke-linecap:butt;stroke-linejoin:miter;stroke-miterlimit:10;stroke-dasharray:none;stroke-opacity:1"
             d="M 0,0 C -69.643,84.655 -166.346,144.026 -273.89,167.491" /></g><g
           transform="translate(348.0954,49.3191)"
           id="g40"><path
             id="path42"
             style="fill:none;stroke:#dcdbdb;stroke-width:5;stroke-linecap:butt;stroke-linejoin:miter;stroke-miterlimit:10;stroke-dasharray:none;stroke-opacity:1"
             d="M 0,0 C -29.66,27.51 -51.401,64.139 -60.37,106.737 -75.727,179.677 -49.764,251.7 1.634,298.502" /></g><g
           transform="translate(396.5602,316.2823)"
           id="g44"><path
             id="path46"
             style="fill:none;stroke:#dcdbdb;stroke-width:5;stroke-linecap:butt;stroke-linejoin:miter;stroke-miterlimit:10;stroke-dasharray:none;stroke-opacity:1"
             d="m 0,0 c -87.084,-34.622 -139.247,-127.852 -119.283,-222.675 4.321,-20.524 11.716,-39.61 21.583,-56.897" /></g><g
           transform="translate(440.2978,154.6042)"
           id="g48"><path
             id="path50"
             style="fill:none;stroke:#dcdbdb;stroke-width:5;stroke-linecap:butt;stroke-linejoin:miter;stroke-miterlimit:10;stroke-dasharray:none;stroke-opacity:1"
             d="M 0,0 C -53.852,38.034 -122.763,54.43 -192.366,39.776 -236.755,30.43 -275.789,9.633 -307.057,-18.861" /></g><g
           transform="translate(133.2409,135.7436)"
           id="g52"><path
             id="path54"
             style="fill:none;stroke:#dcdbdb;stroke-width:5;stroke-linecap:butt;stroke-linejoin:miter;stroke-miterlimit:10;stroke-dasharray:none;stroke-opacity:1"
             d="M 0,0 C 31.268,28.493 70.302,49.291 114.691,58.637 184.294,73.291 253.205,56.895 307.057,18.861" /></g><g
           transform="translate(421.0671,286.3056)"
           id="g56"><path
             id="path58"
             style="fill:none;stroke:#dcdbdb;stroke-width:5;stroke-linecap:butt;stroke-linejoin:miter;stroke-miterlimit:10;stroke-dasharray:none;stroke-opacity:1"
             d="m 0,0 c -46.458,-48.79 -107.641,-84.522 -178.549,-99.451 -41.083,-8.65 -81.994,-9.591 -121.238,-3.819" /></g><g
           transform="translate(121.2805,183.0352)"
           id="g60"><path
             id="path62"
             style="fill:none;stroke:#dcdbdb;stroke-width:5;stroke-linecap:butt;stroke-linejoin:miter;stroke-miterlimit:10;stroke-dasharray:none;stroke-opacity:1"
             d="m 0,0 c 39.244,-5.771 80.155,-4.831 121.237,3.819 70.909,14.929 132.091,50.661 178.55,99.451" /></g><g
           transform="translate(384.5104,326.7874)"
           id="g64"><path
             id="path66"
             style="fill:none;stroke:#dcdbdb;stroke-width:5;stroke-linecap:butt;stroke-linejoin:miter;stroke-miterlimit:10;stroke-dasharray:none;stroke-opacity:1"
             d="M 0,0 C -52.401,-94.783 -133.724,-173.04 -234.87,-220.905" /></g><g
           transform="translate(149.6408,105.8821)"
           id="g68"><path
             id="path70"
             style="fill:none;stroke:#dcdbdb;stroke-width:5;stroke-linecap:butt;stroke-linejoin:miter;stroke-miterlimit:10;stroke-dasharray:none;stroke-opacity:1"
             d="M 0,0 C 101.146,47.866 182.469,126.122 234.87,220.905" /></g><g
           transform="translate(376.7997,65.315)"
           id="g72"><path
             id="path74"
             style="fill:none;stroke:#dcdbdb;stroke-width:5;stroke-linecap:butt;stroke-linejoin:miter;stroke-miterlimit:10;stroke-dasharray:none;stroke-opacity:1"
             d="M 0,0 C -47.219,101.496 -129.663,180.219 -228.825,224.15" /></g><g
           transform="translate(144.7984,284.5403)"
           id="g76"><path
             id="path78"
             style="fill:none;stroke:#dcdbdb;stroke-width:5;stroke-linecap:butt;stroke-linejoin:miter;stroke-miterlimit:10;stroke-dasharray:none;stroke-opacity:1"
             d="M 0,0 C 77.756,-75.608 187.117,-116.156 300.645,-103.752" /></g><g
           transform="translate(260.0835,37.6263)"
           id="g80"><path
             id="path82"
             style="fill:none;stroke:#dcdbdb;stroke-width:5;stroke-linecap:butt;stroke-linejoin:miter;stroke-miterlimit:10;stroke-dasharray:none;stroke-opacity:1"
             d="M 0,0 C 25.381,49.773 34.56,108.22 22.153,167.149 10.628,221.887 -17.775,268.734 -56.455,303.424" /></g><g
           id="g84"><g
             id="g86" /><g
             id="g92"><g
               style="opacity:0.60000598"
               id="g94"
               clip-path="url(#clipPath88)"><g
                 id="g96"
                 transform="translate(394.5829,198.9437)"><path
                   id="path98"
                   style="fill:#ffffff;fill-opacity:1;fill-rule:nonzero;stroke:none"
                   d="m 0,0 5.556,-0.006 5.556,-0.005 5.555,-0.002 5.556,-0.001 5.556,-10e-4 5.556,0 5.556,0 5.556,0 5.556,0 5.556,0 5.556,0 5.556,0 5.555,0 5.556,0 5.556,0 5.556,0 5.556,0 5.556,0 5.556,0 5.556,0 5.556,0 5.556,0 5.556,0 5.555,0 5.556,0 5.556,0 5.556,0 5.556,0 5.556,0 L -5.546,0.01 0,0 Z" /></g><g
                 id="g100"
                 transform="translate(383.8883,198.9742)"><path
                   id="path102"
                   style="fill:#ffffff;fill-opacity:1;fill-rule:nonzero;stroke:none"
                   d="m 0,0 -5.556,0.027 -5.556,0.04 -5.556,0.063 -5.556,0.096 -5.556,0.143 -1.986,0.075 201.999,0.286 -5.556,0.236 -5.556,0.3 -5.556,0.374 -5.556,0.467 -5.556,0.577 -5.555,0.705 -5.556,0.856 -5.556,1.031 -5.556,1.232 -5.556,1.457 -5.556,1.708 -5.556,1.987 -5.556,2.292 -5.556,2.617 -5.556,2.961 -5.556,3.322 -5.555,3.688 -5.556,4.057 -5.556,4.418 -5.556,4.761 -5.556,5.077 -5.556,5.353 -5.556,5.58 -5.556,5.746 -5.556,5.84 -5.556,5.853 -5.555,5.779 c 0,0 -4.15,4.225 -5.556,5.611 -1.373,1.353 -4.144,4.033 -5.556,5.345 -1.367,1.269 -4.138,3.769 -5.556,4.981 -1.362,1.164 -4.132,3.438 -5.556,4.525 -1.357,1.037 -4.137,3.026 -5.556,3.976 -1.348,0.902 -4.128,2.579 -5.556,3.348 -1.355,0.729 -4.131,2.068 -5.556,2.649 -1.359,0.553 -4.142,1.498 -5.556,1.892 -1.364,0.38 -4.153,0.908 -5.556,1.098 -1.378,0.186 -4.166,0.309 -5.556,0.275 -1.395,-0.035 -4.183,-0.298 -5.555,-0.551 -1.407,-0.259 -4.196,-0.922 -5.556,-1.365 -1.416,-0.462 -4.199,-1.537 -5.556,-2.15 -1.427,-0.645 -4.201,-2.104 -5.556,-2.889 -1.428,-0.827 -4.208,-2.614 -5.556,-3.566 -1.419,-1.001 -4.197,-3.087 -5.556,-4.168 -1.422,-1.132 -4.193,-3.486 -5.556,-4.688 -1.416,-1.248 -5.556,-5.113 -5.556,-5.113 l -5.556,-5.445 -5.556,-5.677 -5.555,-5.814 -5.556,-5.858 -5.556,-5.817 -5.556,-5.699 -3.537,-3.508 -2.019,3.502 -5.556,10.792 -5.556,11.842 -5.556,12.714 -5.556,13.335 -5.556,13.641 c 0,0 -4.151,10.185 -5.556,13.571 -1.362,3.282 -4.132,9.826 -5.555,13.082 -1.338,3.061 -4.111,9.14 -5.556,12.151 -1.311,2.733 -4.086,8.127 -5.556,10.779 -1.281,2.311 -4.054,6.818 -5.556,8.992 -1.252,1.814 -4.036,5.249 -5.556,6.844 -1.224,1.285 -3.992,3.576 -5.556,4.414 -1.287,0.689 -4.098,1.727 -5.556,1.795 -1.406,0.065 -4.259,-0.354 -5.556,-0.9 -1.52,-0.641 -4.324,-2.46 -5.556,-3.556 -1.536,-1.366 -4.314,-4.423 -5.556,-6.061 -1.51,-1.992 -4.285,-6.161 -5.556,-8.313 -1.48,-2.506 -4.253,-7.625 -5.555,-10.228 -1.453,-2.904 -4.226,-8.778 -5.556,-11.741 -1.43,-3.187 -4.202,-9.602 -5.556,-12.822 -1.411,-3.355 -5.556,-13.455 -5.556,-13.455 l -5.556,-13.662 -5.556,-13.476 -5.556,-12.952 -5.556,-12.155 -5.556,-11.158 -5.556,-10.03 -5.555,-8.836 -5.556,-7.637 -5.556,-6.478 -5.556,-5.397 -5.556,-4.417 -5.556,-3.552 -5.556,-2.809 -5.556,-2.184 -5.556,-1.67 -5.556,-1.257 -5.555,-0.93 -5.556,-0.677 -5.556,-0.486 -5.556,-0.342 -5.556,-0.238 -5.556,-0.163 -5.556,-0.11 -5.556,-0.073 -5.556,-0.047 51.119,-0.007 -51.119,-0.073 5.556,0 5.556,0 5.556,0 5.556,0 5.556,0.001 5.556,0 5.556,0.002 5.556,0.001 5.555,0.001 5.556,0.003 5.556,0.003 5.556,0.004 5.556,0.008 5.556,0.008 5.556,0.014 5.556,0.017 1.116,0.005 287.801,-0.042 -0.01,0 L 0,0 Z" /></g></g></g></g><g
           transform="translate(11.2252,199.0087)"
           id="g104"><path
             id="path106"
             style="fill:none;stroke:#2d3c99;stroke-width:5;stroke-linecap:butt;stroke-linejoin:miter;stroke-miterlimit:10;stroke-dasharray:none;stroke-opacity:1"
             d="m 0,0 5.556,0.047 5.556,0.072 5.556,0.11 5.556,0.163 5.556,0.238 5.555,0.343 5.556,0.486 5.556,0.677 5.556,0.93 5.556,1.257 5.556,1.67 5.556,2.184 5.556,2.809 5.556,3.552 5.556,4.416 5.555,5.397 5.557,6.478 5.556,7.637 5.555,8.836 5.556,10.03 5.556,11.159 5.556,12.155 5.556,12.952 5.556,13.475 5.556,13.662 5.556,13.456 5.556,12.821 5.556,11.742 c 0,0 4.051,7.738 5.555,10.227 1.293,2.141 4.014,6.349 5.556,8.314 1.27,1.618 3.985,4.74 5.556,6.061 1.264,1.063 4.018,2.967 5.556,3.555 1.316,0.503 4.153,1.007 5.556,0.9 1.454,-0.111 4.267,-1.104 5.556,-1.795 1.56,-0.836 4.293,-3.164 5.556,-4.413 1.564,-1.549 4.279,-5.046 5.556,-6.844 1.529,-2.153 4.254,-6.691 5.556,-8.993 1.492,-2.637 5.556,-10.778 5.556,-10.778 l 5.556,-12.151 5.555,-13.082 5.556,-13.572 5.556,-13.641 5.556,-13.334 5.556,-12.714 5.556,-11.842 5.556,-10.793 5.556,-9.636 5.556,-8.435 5.556,-7.244 5.556,-6.108 5.555,-5.058 5.556,-4.115 5.556,-3.29 5.556,-2.589 5.556,-2 5.556,-1.522 5.556,-1.139 5.556,-0.838 5.556,-0.608 5.556,-0.432 5.555,-0.304 5.556,-0.21 5.556,-0.143 5.556,-0.096 5.556,-0.063 5.556,-0.041 5.556,-0.026 5.556,-0.017 5.556,-0.01 5.556,-0.006 5.556,-0.005 5.555,-0.002 5.556,-0.001 5.556,-0.001 5.556,0 5.556,0 5.556,0 5.556,0 5.556,0 5.556,0 5.556,0 5.555,0 5.556,0 5.556,0 5.556,0 5.556,0 5.556,0 5.556,0 5.556,0 5.556,0 5.556,0 5.556,0 5.555,0 5.556,0 5.556,0 5.556,0 5.556,0 5.556,0" /></g><g
           transform="translate(11.2252,198.9287)"
           id="g108"><path
             id="path110"
             style="fill:none;stroke:#2d3c99;stroke-width:5;stroke-linecap:butt;stroke-linejoin:miter;stroke-miterlimit:10;stroke-dasharray:none;stroke-opacity:1"
             d="m 0,0 5.556,0 5.556,0 5.556,0 5.556,0 5.556,0.001 5.555,0 5.556,0.001 5.556,0.001 5.556,0.001 5.556,0.003 5.556,0.004 5.556,0.004 5.556,0.007 5.556,0.009 5.556,0.014 5.555,0.017 5.557,0.024 5.556,0.033 5.555,0.045 5.556,0.059 5.556,0.078 5.556,0.101 5.556,0.132 5.556,0.171 5.556,0.217 5.556,0.278 5.556,0.347 5.556,0.435 5.555,0.538 5.556,0.66 5.556,0.804 5.556,0.97 5.556,1.162 5.556,1.377 5.556,1.622 5.556,1.892 5.556,2.187 5.556,2.506 5.556,2.845 5.555,3.2 5.556,3.566 5.556,3.935 5.556,4.298 5.556,4.65 5.556,4.975 5.556,5.267 5.556,5.51 5.556,5.698 5.556,5.817 5.556,5.859 5.555,5.813 5.556,5.678 5.556,5.445 5.556,5.113 5.556,4.687 c 0,0 4.13,3.178 5.556,4.169 1.356,0.942 4.128,2.739 5.556,3.566 1.355,0.785 4.13,2.244 5.556,2.888 1.358,0.614 4.136,1.703 5.556,2.15 1.365,0.43 4.146,1.124 5.556,1.366 1.375,0.236 4.16,0.516 5.555,0.55 1.39,0.035 4.175,-0.105 5.556,-0.275 1.405,-0.172 4.188,-0.731 5.556,-1.097 1.417,-0.38 4.196,-1.339 5.556,-1.893 1.424,-0.58 4.2,-1.919 5.556,-2.649 1.427,-0.768 4.2,-2.456 5.556,-3.347 1.426,-0.938 4.198,-2.939 5.556,-3.976 1.423,-1.087 4.194,-3.361 5.556,-4.525 1.418,-1.212 4.189,-3.712 5.556,-4.982 1.412,-1.311 5.556,-5.344 5.556,-5.344 l 5.556,-5.612 5.555,-5.778 5.556,-5.853 5.556,-5.841 5.556,-5.745 5.556,-5.58 5.556,-5.354 5.556,-5.076 5.556,-4.762 5.556,-4.418 5.556,-4.056 5.555,-3.689 5.556,-3.321 5.556,-2.961 5.556,-2.617 5.556,-2.292 5.556,-1.988 5.556,-1.708 5.556,-1.456 5.556,-1.232 5.556,-1.031 5.556,-0.857 5.555,-0.704 5.556,-0.577 5.556,-0.467 5.556,-0.375 5.556,-0.299 5.556,-0.236" /></g><g
           id="g112"><g
             id="g114" /><g
             id="g120"><g
               style="opacity:0.82000703"
               id="g122"
               clip-path="url(#clipPath116)"><g
                 id="g124"
                 transform="translate(375.887,203.7612)"><path
                   id="path126"
                   style="fill:#ffffff;fill-opacity:1;fill-rule:nonzero;stroke:none"
                   d="m 0,0 c -0.095,1.427 -0.351,4.278 -0.526,5.698 -0.175,1.42 -0.608,4.25 -0.875,5.655 -0.27,1.421 -0.25,4.619 -1.271,5.643 -0.833,0.835 -3.453,0.787 -4.604,1.048 -1.388,0.315 -4.166,0.944 -5.556,1.255 -1.388,0.311 -4.166,0.929 -5.556,1.234 -1.388,0.304 -4.166,0.907 -5.556,1.203 -1.388,0.295 -4.165,0.877 -5.556,1.161 -1.387,0.283 -4.165,0.839 -5.555,1.109 -1.387,0.269 -4.165,0.794 -5.556,1.047 -1.387,0.253 -4.165,0.741 -5.556,0.975 -1.387,0.234 -4.165,0.682 -5.556,0.895 -1.387,0.211 -4.165,0.614 -5.556,0.803 -1.387,0.188 -4.165,0.542 -5.556,0.705 -1.387,0.163 -4.165,0.464 -5.556,0.599 -1.387,0.136 -4.166,0.38 -5.556,0.488 -1.388,0.107 -4.166,0.292 -5.556,0.37 -1.388,0.077 -4.166,0.202 -5.556,0.249 -1.388,0.046 -4.166,0.109 -5.555,0.125 -1.389,0.016 -4.167,0.016 -5.556,0 -1.389,-0.016 -4.167,-0.079 -5.556,-0.125 -1.389,-0.047 -4.167,-0.172 -5.556,-0.249 -1.39,-0.078 -4.168,-0.263 -5.556,-0.37 -1.39,-0.108 -4.168,-0.352 -5.556,-0.488 -1.39,-0.135 -4.168,-0.436 -5.556,-0.599 -1.39,-0.163 -4.168,-0.517 -5.556,-0.705 -1.39,-0.189 -4.168,-0.591 -5.556,-0.803 -1.39,-0.213 -4.168,-0.661 -5.556,-0.895 -1.39,-0.234 -4.168,-0.722 -5.556,-0.975 -1.39,-0.253 -4.167,-0.778 -5.555,-1.047 -1.39,-0.27 -4.168,-0.826 -5.556,-1.109 -1.39,-0.284 -4.168,-0.866 -5.556,-1.161 -1.39,-0.296 -4.168,-0.899 -5.556,-1.203 -1.39,-0.305 -4.167,-0.923 -5.556,-1.234 -1.389,-0.311 -4.167,-0.94 -5.556,-1.255 -0.642,-0.146 -2.091,-0.131 -2.569,-0.585 -0.097,-0.092 -0.113,-0.385 -0.146,-0.515 -0.348,-1.388 -0.958,-4.184 -1.22,-5.591 -0.262,-1.406 -0.7,-4.235 -0.875,-5.655 -0.175,-1.42 -0.438,-4.27 -0.526,-5.698 -0.088,-1.428 -0.176,-4.289 -0.176,-5.719 0,-1.431 0.088,-4.293 0.176,-5.721 0.088,-1.428 0.351,-4.278 0.526,-5.698 0.175,-1.42 0.613,-4.248 0.875,-5.655 0.262,-1.406 0.872,-4.203 1.22,-5.59 0.348,-1.388 1.129,-4.141 1.561,-5.505 0.432,-1.363 1.38,-4.062 1.895,-5.396 0.515,-1.334 1.627,-3.971 2.223,-5.27 0.596,-1.3 1.868,-3.862 2.542,-5.123 0.675,-1.26 2.101,-3.74 2.852,-4.957 0.751,-1.216 2.326,-3.602 3.15,-4.77 0.824,-1.168 2.543,-3.452 3.437,-4.567 0.894,-1.114 2.75,-3.288 3.711,-4.345 0.96,-1.057 2.946,-3.112 3.97,-4.108 1.023,-0.996 3.131,-2.926 4.214,-3.857 1.083,-0.93 3.306,-2.724 4.444,-3.587 1.138,-0.862 3.466,-2.516 4.654,-3.306 1.188,-0.791 3.614,-2.298 4.849,-3.013 1.235,-0.715 3.749,-2.069 5.025,-2.707 1.276,-0.637 3.868,-1.835 5.181,-2.392 1.313,-0.558 3.973,-1.592 5.318,-2.067 1.345,-0.475 4.064,-1.343 5.435,-1.735 1.371,-0.391 4.138,-1.09 5.531,-1.396 1.393,-0.306 4.197,-0.831 5.606,-1.051 1.409,-0.219 4.24,-0.571 5.66,-0.703 1.42,-0.132 4.267,-0.309 5.692,-0.353 1.425,-0.045 4.278,-0.045 5.703,0 1.425,0.044 4.272,0.221 5.692,0.353 1.42,0.132 4.251,0.484 5.66,0.703 1.409,0.22 4.213,0.745 5.606,1.051 1.393,0.306 4.16,1.005 5.531,1.396 1.372,0.392 4.09,1.26 5.435,1.735 1.345,0.475 4.005,1.509 5.318,2.067 1.313,0.557 3.905,1.755 5.181,2.392 1.277,0.638 3.79,1.992 5.025,2.707 1.235,0.715 3.661,2.222 4.849,3.013 1.189,0.79 3.517,2.444 4.655,3.306 1.138,0.862 3.361,2.657 4.443,3.587 1.083,0.931 3.191,2.861 4.214,3.857 1.024,0.996 3.01,3.051 3.971,4.108 0.961,1.057 2.816,3.231 3.71,4.345 0.894,1.115 2.613,3.399 3.437,4.567 0.824,1.168 2.4,3.554 3.15,4.77 0.751,1.217 2.177,3.697 2.852,4.957 0.675,1.261 1.946,3.823 2.542,5.123 0.596,1.299 1.708,3.936 2.223,5.27 0.515,1.334 1.464,4.033 1.896,5.396 0.432,1.364 1.212,4.117 1.56,5.505 0.348,1.387 0.958,4.184 1.22,5.59 0.262,1.407 0.7,4.235 0.875,5.655 0.175,1.42 0.431,4.271 0.526,5.698 0.095,1.428 0.176,4.29 0.176,5.721 C 0.176,-4.289 0.095,-1.427 0,0" /></g></g></g></g><g
           id="g128"><g
             id="g130" /><g
             id="g136"><g
               style="opacity:0.75"
               id="g138"
               clip-path="url(#clipPath132)"><g
                 id="g140"
                 transform="translate(339.0012,199.4202)"><path
                   id="path142"
                   style="fill:#ffffff;fill-opacity:1;fill-rule:evenodd;stroke:none"
                   d="m 0,0 c 0.037,1.435 -0.148,4.305 -0.295,5.732 -0.147,1.428 -0.588,4.268 -0.88,5.671 -0.293,1.406 -1.023,4.185 -1.457,5.55 -0.436,1.37 -1.447,4.059 -2.018,5.372 -0.574,1.317 -1.854,3.888 -2.557,5.134 -0.706,1.252 -2.743,2.527 -2.743,2.527 l -19.163,2.251 -20.022,1.348 -12.842,0.094 -24.639,-1.831 -11.112,-1.509 -5.21,-1.568 c 0,0 -1.677,-2.56 -2.318,-3.846 -0.638,-1.281 -1.786,-3.914 -2.291,-5.26 -0.504,-1.34 -1.375,-4.078 -1.74,-5.468 -0.364,-1.386 -0.95,-4.199 -1.17,-5.618 -0.22,-1.417 -0.588,-5.71 -0.588,-5.71 0,0 -0.074,-4.306 0,-5.739 0.074,-1.434 0.368,-4.293 0.588,-5.71 0.22,-1.419 0.806,-4.232 1.17,-5.618 0.365,-1.39 1.236,-4.128 1.74,-5.468 0.505,-1.346 1.653,-3.979 2.291,-5.26 0.641,-1.286 2.051,-3.787 2.817,-4.995 0.769,-1.214 2.43,-3.556 3.315,-4.678 0.89,-1.128 2.781,-3.286 3.776,-4.311 1.001,-1.03 3.103,-2.982 4.198,-3.899 1.101,-0.922 3.391,-2.646 4.575,-3.445 1.189,-0.803 3.645,-2.282 4.904,-2.955 1.265,-0.676 3.859,-1.894 5.181,-2.433 1.327,-0.542 4.032,-1.485 5.403,-1.886 1.375,-0.401 4.162,-1.062 5.567,-1.319 1.408,-0.257 4.248,-0.625 5.673,-0.736 1.426,-0.111 4.288,-0.185 5.718,-0.149 1.429,0.037 4.284,0.259 5.703,0.443 1.417,0.185 4.235,0.699 5.628,1.029 1.39,0.33 4.139,1.133 5.492,1.605 1.348,0.471 4.001,1.552 5.299,2.162 1.293,0.607 3.82,1.958 5.049,2.698 1.223,0.737 3.6,2.34 4.746,3.204 1.141,0.859 3.34,2.7 4.392,3.678 1.047,0.972 3.047,3.029 3.993,4.11 0.942,1.075 2.72,3.328 3.55,4.5 0.826,1.167 2.364,3.591 3.07,4.843 0.703,1.246 1.983,3.817 2.557,5.134 0.571,1.313 1.582,4.002 2.018,5.372 0.434,1.365 1.164,4.144 1.457,5.55 0.292,1.403 0.843,4.235 0.88,5.671 C -0.258,-4.298 -0.037,-1.435 0,0" /></g></g></g></g><g
           transform="translate(338.7401,198.9429)"
           id="g144"><path
             id="path146"
             style="fill:none;stroke:#2d3c99;stroke-width:5;stroke-linecap:butt;stroke-linejoin:miter;stroke-miterlimit:10;stroke-dasharray:none;stroke-opacity:1"
             d="m 0,0 c 0,-30.528 -24.748,-55.276 -55.276,-55.276 -30.527,0 -55.275,24.748 -55.275,55.276 0,30.528 24.748,55.276 55.275,55.276 C -24.748,55.276 0,30.528 0,0 Z" /></g><g
           id="g148"><g
             id="g150" /><g
             id="g156"><g
               style="opacity:0.82000703"
               id="g158"
               clip-path="url(#clipPath152)"><g
                 id="g160"
                 transform="translate(201.8866,222.7981)"><path
                   id="path162"
                   style="fill:#ffffff;fill-opacity:1;fill-rule:nonzero;stroke:none"
                   d="m 0,0 5.556,1.234 5.556,1.203 5.556,1.161 5.556,1.109 5.555,1.047 5.556,0.975 5.556,0.895 5.556,0.803 5.556,0.706 5.556,0.598 5.556,0.488 5.556,0.37 5.556,0.249 5.556,0.125 5.556,0 5.555,-0.125 5.556,-0.249 5.556,-0.37 5.556,-0.488 5.556,-0.598 5.556,-0.706 5.556,-0.803 5.556,-0.895 5.556,-0.975 5.556,-1.047 5.555,-1.109 5.556,-1.161 5.556,-1.203 5.556,-1.234 5.556,-1.255 4.604,-1.048 -1.552,5.477 -1.896,5.397 -2.224,5.27 -2.541,5.124 -2.852,4.956 -3.151,4.77 -3.437,4.567 -3.709,4.345 -3.971,4.108 -4.214,3.856 -4.443,3.587 -4.656,3.307 -4.823,2.997 -5.007,2.697 -5.181,2.393 -5.318,2.066 -5.435,1.736 -5.531,1.395 -5.606,1.052 -5.66,0.704 -5.692,0.352 -5.703,0 -5.692,-0.352 -5.66,-0.704 L 61.721,65.745 56.19,64.35 50.755,62.614 45.437,60.548 40.256,58.155 35.231,55.448 30.382,52.436 25.728,49.129 21.284,45.542 17.07,41.686 13.1,37.578 9.389,33.232 5.952,28.666 2.802,23.895 -0.05,18.939 -2.592,13.816 -4.815,8.546 -6.71,3.149 -8.125,-1.84 -5.556,-1.255 0,0 Z" /></g></g></g></g><g
           transform="translate(552.5085,199.449)"
           id="g164"><path
             id="path166"
             style="fill:none;stroke:#ed1d24;stroke-width:5;stroke-linecap:butt;stroke-linejoin:miter;stroke-miterlimit:10;stroke-dasharray:none;stroke-opacity:1"
             d="M 0,0 5.556,-0.081" /></g><g
           transform="translate(552.5085,198.9449)"
           id="g168"><path
             id="path170"
             style="fill:none;stroke:#3b4ba7;stroke-width:5;stroke-linecap:butt;stroke-linejoin:miter;stroke-miterlimit:10;stroke-dasharray:none;stroke-opacity:1"
             d="M 0,0 5.556,0" /></g><g
           transform="translate(552.5085,199.7084)"
           id="g172"><path
             id="path174"
             style="fill:none;stroke:#3b4ba7;stroke-width:5;stroke-linecap:butt;stroke-linejoin:miter;stroke-miterlimit:10;stroke-dasharray:none;stroke-opacity:1"
             d="M 0,0 5.556,-0.183" /></g><g
           transform="translate(552.5085,199.449)"
           id="g176"><path
             id="path178"
             style="fill:none;stroke:#a81c2a;stroke-width:5;stroke-linecap:butt;stroke-linejoin:miter;stroke-miterlimit:10;stroke-dasharray:none;stroke-opacity:1"
             d="M 0,0 5.556,-0.081" /></g><g
           transform="translate(552.5085,197.5974)"
           id="g180"><path
             id="path182"
             style="fill:none;stroke:#a81c2a;stroke-width:5;stroke-linecap:butt;stroke-linejoin:miter;stroke-miterlimit:10;stroke-dasharray:none;stroke-opacity:1"
             d="M 0,0 5.556,0.218" /></g><g
           transform="translate(552.5085,200.2915)"
           id="g184"><path
             id="path186"
             style="fill:none;stroke:#a81c2a;stroke-width:5;stroke-linecap:butt;stroke-linejoin:miter;stroke-miterlimit:10;stroke-dasharray:none;stroke-opacity:1"
             d="M 0,0 5.556,-0.218" /></g><g
           transform="translate(553.3435,200.3056)"
           id="g188"><path
             id="path190"
             style="fill:none;stroke:#a81c2a;stroke-width:5;stroke-linecap:butt;stroke-linejoin:miter;stroke-miterlimit:10;stroke-dasharray:none;stroke-opacity:1"
             d="m 0,0 -5.556,0.254 -5.556,0.294 -5.556,0.342 -5.556,0.393 -5.556,0.453 -5.555,0.515 -5.556,0.588 -5.556,0.665 -5.556,0.752 -5.556,0.844 -5.556,0.945 -5.556,1.054 -5.556,1.168 -5.556,1.292 -5.556,1.419 -5.556,1.555 -5.555,1.695 -5.556,1.839 -5.556,1.985 -5.556,2.135 -5.556,2.284 -5.556,2.432 -5.556,2.575 -5.556,2.715 -5.556,2.846 -5.556,2.968 -5.555,3.079 -5.556,3.175 -5.556,3.255 -5.556,3.318 -5.556,3.36 -5.556,3.378 -5.556,3.376 -5.556,3.344 -5.556,3.29 -5.556,3.207 -5.556,3.097 -5.555,2.957 -5.556,2.794 -5.556,2.601 -5.556,2.383 -5.556,2.144 -5.556,1.88 -5.556,1.597 -5.556,1.3 -5.556,0.987 -5.556,0.663 -5.555,0.335 -5.556,0 -5.556,-0.335 -5.556,-0.663 -5.556,-0.987 -5.556,-1.3 -5.556,-1.597 -5.556,-1.88 -5.556,-2.144 -5.556,-2.383 -5.556,-2.601 -5.555,-2.794 -5.556,-2.957 -5.556,-3.097 -5.556,-3.207 -5.556,-3.29 -5.556,-3.344 -5.556,-3.376 -5.556,-3.378 -5.556,-3.36 -5.556,-3.318 -5.556,-3.255 -5.555,-3.175 -5.556,-3.079 -5.556,-2.968 -5.556,-2.846 -5.556,-2.715 -5.556,-2.575 -5.556,-2.432 -5.556,-2.284 -5.556,-2.135 -5.556,-1.985 -5.555,-1.839 -5.556,-1.695 -5.556,-1.555 -5.556,-1.419 -5.556,-1.292 -5.556,-1.168 -5.556,-1.054 -5.556,-0.945 -5.556,-0.844 -5.556,-0.752 -5.556,-0.665 -5.555,-0.588 -5.556,-0.515 -5.556,-0.453 -5.556,-0.393 -5.556,-0.342 -5.556,-0.294 -5.556,-0.254 -5.556,-0.218" /></g><g
           transform="translate(553.3435,197.6115)"
           id="g192"><path
             id="path194"
             style="fill:none;stroke:#a81c2a;stroke-width:5;stroke-linecap:butt;stroke-linejoin:miter;stroke-miterlimit:10;stroke-dasharray:none;stroke-opacity:1"
             d="m 0,0 -5.556,-0.254 -5.556,-0.294 -5.556,-0.342 -5.556,-0.393 -5.556,-0.452 -5.555,-0.516 -5.556,-0.588 -5.556,-0.665 -5.556,-0.752 -5.556,-0.844 -5.556,-0.945 -5.556,-1.053 -5.556,-1.169 -5.556,-1.292 -5.556,-1.419 -5.556,-1.555 -5.555,-1.695 -5.556,-1.839 -5.556,-1.985 -5.556,-2.135 -5.556,-2.284 -5.556,-2.431 -5.556,-2.576 -5.556,-2.714 -5.556,-2.847 -5.556,-2.968 -5.555,-3.078 -5.556,-3.176 -5.556,-3.255 -5.556,-3.318 -5.556,-3.36 -5.556,-3.378 -5.556,-3.376 -5.556,-3.344 -5.556,-3.29 -5.556,-3.207 -5.556,-3.097 -5.555,-2.957 c 0,0 -4.157,-2.115 -5.556,-2.794 -1.38,-0.669 -4.157,-1.972 -5.556,-2.6 -1.379,-0.618 -4.156,-1.814 -5.556,-2.384 -1.379,-0.561 -4.156,-1.636 -5.556,-2.142 -1.379,-0.5 -4.157,-1.444 -5.556,-1.882 -1.379,-0.431 -4.157,-1.233 -5.556,-1.597 -1.38,-0.36 -4.159,-1.013 -5.556,-1.3 -1.382,-0.284 -4.161,-0.78 -5.556,-0.987 -1.384,-0.206 -4.163,-0.538 -5.556,-0.663 -1.386,-0.125 -4.164,-0.293 -5.555,-0.335 -1.388,-0.041 -4.168,-0.041 -5.556,0 -1.391,0.042 -4.17,0.21 -5.556,0.335 -1.393,0.125 -4.172,0.457 -5.556,0.663 -1.395,0.207 -4.174,0.703 -5.556,0.987 -1.397,0.287 -4.176,0.94 -5.556,1.3 -1.399,0.364 -4.177,1.166 -5.556,1.597 -1.4,0.438 -4.177,1.382 -5.556,1.882 -1.4,0.506 -4.177,1.581 -5.556,2.142 -1.4,0.57 -4.177,1.766 -5.556,2.384 -1.399,0.628 -4.176,1.931 -5.556,2.6 -1.399,0.679 -5.555,2.794 -5.555,2.794 l -5.556,2.957 -5.556,3.097 -5.556,3.207 -5.556,3.29 -5.556,3.344 -5.556,3.376 -5.556,3.378 -5.556,3.36 -5.556,3.318 -5.556,3.255 -5.555,3.176 -5.556,3.078 -5.556,2.968 -5.556,2.847 -5.556,2.714 -5.556,2.576 -5.556,2.431 -5.556,2.284 -5.556,2.135 -5.556,1.985 -5.555,1.839 -5.556,1.695 -5.556,1.555 -5.556,1.419 -5.556,1.292 -5.556,1.169 -5.556,1.053 -5.556,0.945 -5.556,0.844 -5.556,0.752 -5.556,0.665 -5.555,0.588 -5.556,0.516 -5.556,0.452 -5.556,0.393 -5.556,0.342 -5.556,0.294 -5.556,0.254 -5.556,0.218" /></g><g
           transform="translate(553.3435,197.8735)"
           id="g196"><path
             id="path198"
             style="fill:none;stroke:#a81c2a;stroke-width:5;stroke-linecap:butt;stroke-linejoin:miter;stroke-miterlimit:10;stroke-dasharray:none;stroke-opacity:1"
             d="m 0,0 -5.556,-0.166 -5.556,-0.192 -5.556,-0.22 -5.556,-0.256 -5.556,-0.294 -5.555,-0.333 -5.556,-0.382 -5.556,-0.432 -5.556,-0.487 -5.556,-0.548 -5.556,-0.614 -5.556,-0.683 -5.556,-0.759 -5.556,-0.837 -5.556,-0.921 -5.556,-1.009 -5.555,-1.099 -5.556,-1.193 -5.556,-1.29 -5.556,-1.384 -5.556,-1.482 -5.556,-1.578 -5.556,-1.671 -5.556,-1.761 -5.556,-1.846 -5.556,-1.927 -5.555,-1.997 -5.556,-2.06 -5.556,-2.113 -5.556,-2.153 -5.556,-2.18 -5.556,-2.191 -5.556,-2.189 -5.556,-2.171 -5.556,-2.135 -5.556,-2.082 -5.556,-2.008 -5.555,-1.92 -5.556,-1.811 -5.556,-1.688 -5.556,-1.547 -5.556,-1.39 c 0,0 -4.162,-0.938 -5.556,-1.221 -1.385,-0.281 -4.163,-0.801 -5.556,-1.036 -1.385,-0.234 -4.164,-0.657 -5.556,-0.843 -1.386,-0.185 -4.164,-0.506 -5.556,-0.64 -1.387,-0.134 -4.165,-0.35 -5.556,-0.431 -1.388,-0.081 -4.166,-0.19 -5.555,-0.217 -1.389,-0.027 -4.167,-0.027 -5.556,0 -1.39,0.027 -4.168,0.136 -5.556,0.217 -1.391,0.081 -4.169,0.297 -5.556,0.431 -1.392,0.134 -4.17,0.455 -5.556,0.64 -1.393,0.186 -4.171,0.609 -5.556,0.843 -1.393,0.235 -5.556,1.036 -5.556,1.036 l -5.556,1.221 -5.556,1.39 -5.556,1.547 -5.556,1.688 -5.555,1.811 -5.556,1.92 -5.556,2.008 -5.556,2.082 -5.556,2.135 -5.556,2.171 -5.556,2.189 -5.556,2.191 -5.556,2.18 -5.556,2.153 -5.556,2.113 -5.555,2.06 -5.556,1.997 -5.556,1.927 -5.556,1.846 -5.556,1.761 -5.556,1.671 -5.556,1.578 -5.556,1.482 -5.556,1.384 -5.556,1.29 -5.555,1.193 -5.556,1.099 -5.556,1.009 -5.556,0.921 -5.556,0.837 -5.556,0.759 -5.556,0.683 -5.556,0.614 -5.556,0.548 -5.556,0.487 -5.556,0.432 -5.555,0.382 -5.556,0.333 -5.556,0.294 -5.556,0.256 -5.556,0.22 -5.556,0.192 -5.556,0.166 -5.556,0.14" /></g><g
           transform="translate(553.3435,199.4631)"
           id="g200"><path
             id="path202"
             style="fill:none;stroke:#a81c2a;stroke-width:5;stroke-linecap:butt;stroke-linejoin:miter;stroke-miterlimit:10;stroke-dasharray:none;stroke-opacity:1"
             d="m 0,0 -5.556,0.096 -5.556,0.111 -5.556,0.127 -5.556,0.148 -5.556,0.17 -5.555,0.193 -5.556,0.22 -5.556,0.25 -5.556,0.281 -5.556,0.317 -5.556,0.355 -5.556,0.395 -5.556,0.438 -5.556,0.484 -5.556,0.533 -5.556,0.583 -5.555,0.634 -5.556,0.69 -5.556,0.746 -5.556,0.8 -5.556,0.856 -5.556,0.912 -5.556,0.966 -5.556,1.018 -5.556,1.067 -5.556,1.113 -5.555,1.155 -5.556,1.19 -5.556,1.221 -5.556,1.245 -5.556,1.26 -5.556,1.266 -5.556,1.265 -5.556,1.255 -5.556,1.234 -5.556,1.203 -5.556,1.161 -5.555,1.109 -5.556,1.047 c 0,0 -4.165,0.742 -5.556,0.976 -1.387,0.233 -4.165,0.681 -5.556,0.894 -1.387,0.212 -4.165,0.614 -5.556,0.803 -1.387,0.189 -4.165,0.542 -5.556,0.706 -1.388,0.163 -4.166,0.463 -5.556,0.599 -1.388,0.135 -4.166,0.379 -5.556,0.487 -1.388,0.107 -4.166,0.292 -5.556,0.37 -1.388,0.077 -4.166,0.202 -5.556,0.249 -1.388,0.046 -4.166,0.11 -5.555,0.125 -1.389,0.016 -4.167,0.016 -5.556,0 -1.389,-0.015 -4.167,-0.079 -5.556,-0.125 -1.39,-0.047 -4.168,-0.172 -5.556,-0.249 -1.39,-0.078 -4.168,-0.263 -5.556,-0.37 -1.39,-0.108 -4.168,-0.352 -5.556,-0.487 -1.39,-0.136 -4.169,-0.436 -5.556,-0.599 -1.391,-0.164 -4.169,-0.517 -5.556,-0.706 -1.391,-0.189 -4.169,-0.591 -5.556,-0.803 -1.391,-0.213 -4.169,-0.661 -5.556,-0.894 -1.391,-0.234 -5.556,-0.976 -5.556,-0.976 l -5.555,-1.047 -5.556,-1.109 -5.556,-1.161 -5.556,-1.203 -5.556,-1.234 -5.556,-1.255 -5.556,-1.265 -5.556,-1.266 -5.556,-1.26 -5.556,-1.245 -5.556,-1.221 -5.555,-1.19 -5.556,-1.155 -5.556,-1.113 -5.556,-1.067 -5.556,-1.018 -5.556,-0.966 -5.556,-0.912 -5.556,-0.856 -5.556,-0.8 -5.556,-0.746 -5.555,-0.69 -5.556,-0.634 -5.556,-0.583 -5.556,-0.533 -5.556,-0.484 -5.556,-0.438 -5.556,-0.395 -5.556,-0.355 -5.556,-0.317 -5.556,-0.281 -5.556,-0.25 -5.555,-0.22 -5.556,-0.193 -5.556,-0.17 -5.556,-0.148 -5.556,-0.127 -5.556,-0.111 -5.556,-0.096 -5.556,-0.081" /></g><g
           transform="translate(377.0081,198.9429)"
           id="g204"><path
             id="path206"
             style="fill:none;stroke:#a81c2a;stroke-width:5;stroke-linecap:butt;stroke-linejoin:miter;stroke-miterlimit:10;stroke-dasharray:none;stroke-opacity:1"
             d="m 0,0 c 0,-51.663 -41.881,-93.543 -93.543,-93.543 -51.663,0 -93.544,41.88 -93.544,93.543 0,51.663 41.881,93.543 93.544,93.543 C -41.881,93.543 0,51.663 0,0 Z" /></g><g
           transform="translate(313.2283,198.9429)"
           id="g208"><path
             id="path210"
             style="fill:#100f0d;fill-opacity:1;fill-rule:evenodd;stroke:none"
             d="m 0,0 c 0,-16.438 -13.326,-29.764 -29.764,-29.764 -16.438,0 -29.764,13.326 -29.764,29.764 0,16.438 13.326,29.764 29.764,29.764 C -13.326,29.764 0,16.438 0,0" /></g><g
           transform="translate(314.6457,215.9508)"
           id="g212"><path
             id="path214"
             style="fill:#ffffff;fill-opacity:1;fill-rule:evenodd;stroke:none"
             d="m 0,0 c 0,-7.828 -6.346,-14.173 -14.173,-14.173 -7.828,0 -14.173,6.345 -14.173,14.173 0,7.828 6.345,14.173 14.173,14.173 C -6.346,14.173 0,7.828 0,0" /></g></g></g><text
       id="text216"
       style="font-variant:normal;font-weight:bold;font-stretch:normal;font-size:74.52832794px;font-family:'Caviar Dreams';-inkscape-font-specification:CaviarDreams-Bold;writing-mode:lr-tb;fill:#231f20;fill-opacity:1;fill-rule:nonzero;stroke:none"
       transform="matrix(0.60039452,-0.79970396,-0.79970396,-0.60039452,124.0259,92.4121)"><tspan
         id="tspan218"
         y="0"
         x="0">I</tspan></text>
<text
       id="text220"
       style="font-variant:normal;font-weight:bold;font-stretch:normal;font-size:74.52833557px;font-family:'Caviar Dreams';-inkscape-font-specification:CaviarDreams-Bold;writing-mode:lr-tb;fill:#231f20;fill-opacity:1;fill-rule:nonzero;stroke:none"
       transform="matrix(0.75937962,-0.65064782,-0.65064782,-0.75937962,139.9854,69.8701)"><tspan
         id="tspan222"
         y="0"
         x="0">N</tspan></text>
<g
       id="g224"><g
         clip-path="url(#clipPath228)"
         id="g226"><text
           id="text232"
           style="font-variant:normal;font-weight:bold;font-stretch:normal;font-size:74.52830505px;font-family:'Caviar Dreams';-inkscape-font-specification:CaviarDreams-Bold;writing-mode:lr-tb;fill:#231f20;fill-opacity:1;fill-rule:nonzero;stroke:none"
           transform="matrix(0.91107801,-0.41223398,-0.41223398,-0.91107801,186.1826,32.9697)"><tspan
             id="tspan234"
             y="0"
             x="0">S</tspan></text>
<text
           id="text236"
           style="font-variant:normal;font-weight:bold;font-stretch:normal;font-size:74.52825928px;font-family:'Caviar Dreams';-inkscape-font-specification:CaviarDreams-Bold;writing-mode:lr-tb;fill:#231f20;fill-opacity:1;fill-rule:nonzero;stroke:none"
           transform="matrix(0.97299874,-0.23081044,-0.23081044,-0.97299874,229.2427,15.2314)"><tspan
             id="tspan238"
             y="0"
             x="0">I</tspan></text>
<text
           id="text240"
           style="font-variant:normal;font-weight:bold;font-stretch:normal;font-size:74.52832794px;font-family:'Caviar Dreams';-inkscape-font-specification:CaviarDreams-Bold;writing-mode:lr-tb;fill:#231f20;fill-opacity:1;fill-rule:nonzero;stroke:none"
           transform="matrix(0.99976751,0.02156227,0.02156227,-0.99976751,257.2075,7.1533)"><tspan
             id="tspan242"
             y="0"
             x="0">G</tspan></text>
<text
           id="text244"
           style="font-variant:normal;font-weight:bold;font-stretch:normal;font-size:74.52829742px;font-family:'Caviar Dreams';-inkscape-font-specification:CaviarDreams-Bold;writing-mode:lr-tb;fill:#231f20;fill-opacity:1;fill-rule:nonzero;stroke:none"
           transform="matrix(0.93807056,0.34644426,0.34644426,-0.93807056,329.0967,11.957)"><tspan
             id="tspan246"
             y="0"
             x="0">H</tspan></text>
</g></g><text
       id="text248"
       style="font-variant:normal;font-weight:bold;font-stretch:normal;font-size:74.52829742px;font-family:'Caviar Dreams';-inkscape-font-specification:CaviarDreams-Bold;writing-mode:lr-tb;fill:#231f20;fill-opacity:1;fill-rule:nonzero;stroke:none"
       transform="matrix(0.81635168,0.57755513,0.57755513,-0.81635168,378.2168,31.7646)"><tspan
         id="tspan250"
         y="0"
         x="0">T</tspan></text>
<text
       id="text252"
       style="font-variant:normal;font-weight:bold;font-stretch:normal;font-size:74.52830505px;font-family:'Caviar Dreams';-inkscape-font-specification:CaviarDreams-Bold;writing-mode:lr-tb;fill:#231f20;fill-opacity:1;fill-rule:nonzero;stroke:none"
       transform="matrix(0.65036231,0.75962416,0.75962416,-0.65036231,415.917,59.6025)"><tspan
         id="tspan254"
         y="0"
         x="0">S</tspan></text>
</g></svg>